<?xml version="1.0" encoding="utf-8"?>
<!-- Generated by IcoMoon.io -->
<!DOCTYPE svg PUBLIC "-//W3C//DTD SVG 1.1//EN" "http://www.w3.org/Graphics/SVG/1.1/DTD/svg11.dtd">
<svg version="1.1" xmlns="http://www.w3.org/2000/svg" xmlns:xlink="http://www.w3.org/1999/xlink" width="1024" height="1024" viewBox="0 0 1024 1024">
<g id="icomoon-ignore">
</g>
<path fill="#f7b517" d="M648.533 375.467c-20.48-20.48-40.96-34.133-61.44-40.96-20.48-13.653-47.787-20.48-75.093-20.48s-54.613 6.827-75.093 13.653c-27.307 13.653-47.787 27.307-61.44 47.787-20.48 13.653-34.133 34.133-40.96 61.44-13.653 20.48-20.48 47.787-20.48 75.093s6.827 54.613 13.653 75.093c13.653 20.48 27.307 40.96 47.787 61.44 13.653 20.48 34.133 34.133 61.44 40.96 20.48 13.653 47.787 13.653 75.093 13.653s54.613-6.827 75.093-13.653c20.48-6.827 40.96-20.48 61.44-40.96s34.133-40.96 40.96-61.44c6.827-20.48 13.653-47.787 13.653-75.093s-6.827-54.613-13.653-75.093c-6.827-27.307-20.48-47.787-40.96-61.44zM512 0c-279.893 0-512 232.107-512 512s232.107 512 512 512c279.893 0 512-232.107 512-512s-232.107-512-512-512zM791.893 587.093c-6.827 27.307-13.653 47.787-27.307 68.267s-27.307 40.96-47.787 61.44c-20.48 20.48-40.96 34.133-61.44 47.787s-47.787 20.48-68.267 27.307c-27.307 6.827-47.787 13.653-75.093 13.653s-54.613-6.827-75.093-13.653c-27.307-6.827-47.787-13.653-68.267-27.307-27.307-13.653-47.787-27.307-61.44-47.787-20.48-13.653-34.133-34.133-47.787-54.613-13.653-27.307-20.48-47.787-27.307-75.093-13.653-20.48-13.653-47.787-13.653-75.093s6.827-54.613 13.653-75.093c6.827-27.307 13.653-47.787 27.307-68.267 13.653-27.307 27.307-47.787 47.787-61.44 13.653-20.48 34.133-34.133 54.613-47.787s47.787-20.48 68.267-27.307c27.307-6.827 47.787-13.653 75.093-13.653s54.613 6.827 75.093 13.653c27.307 6.827 47.787 13.653 68.267 27.307 34.133 13.653 54.613 27.307 68.267 47.787 20.48 13.653 34.133 34.133 47.787 54.613s20.48 47.787 27.307 68.267c6.827 27.307 13.653 47.787 13.653 75.093 0 34.133-6.827 61.44-13.653 81.92z"></path>
</svg>
