<?xml version="1.0" encoding="utf-8"?>
<!-- Generated by IcoMoon.io -->
<!DOCTYPE svg PUBLIC "-//W3C//DTD SVG 1.1//EN" "http://www.w3.org/Graphics/SVG/1.1/DTD/svg11.dtd">
<svg version="1.1" xmlns="http://www.w3.org/2000/svg" xmlns:xlink="http://www.w3.org/1999/xlink" width="1024" height="1024" viewBox="0 0 1024 1024">
<g id="icomoon-ignore">
</g>
<path fill="#315500" d="M738.358 549.726c21.558-21.558 21.558-53.895 0-75.453l-215.579-215.579c-10.779-10.779-26.947-16.168-37.726-16.168s-26.947 5.389-37.726 16.168c-21.558 21.558-21.558 53.895 0 75.453l123.958 123.958h-334.147c-32.337 0-53.895 26.947-53.895 53.895 0 32.337 26.947 53.895 53.895 53.895h328.758l-123.958 123.958c-21.558 21.558-21.558 53.895 0 75.453s53.895 21.558 75.453 0l220.968-215.579zM75.453 458.105h-21.558c-32.337 0-53.895 26.947-53.895 53.895 0 32.337 26.947 53.895 53.895 53.895h21.558c32.337 0 53.895-26.947 53.895-53.895s-26.947-53.895-53.895-53.895zM970.105 26.947h-420.379c-32.337 0-53.895 26.947-53.895 53.895 0 32.337 26.947 53.895 53.895 53.895h366.484v754.526h-366.484c-32.337 0-53.895 26.947-53.895 53.895 0 32.337 26.947 53.895 53.895 53.895h420.379c32.337 0 53.895-26.947 53.895-53.895v-862.316c0-26.947-26.947-53.895-53.895-53.895z"></path>
</svg>
