<?xml version="1.0" encoding="utf-8"?>
<!-- Generated by IcoMoon.io -->
<!DOCTYPE svg PUBLIC "-//W3C//DTD SVG 1.1//EN" "http://www.w3.org/Graphics/SVG/1.1/DTD/svg11.dtd">
<svg version="1.1" xmlns="http://www.w3.org/2000/svg" xmlns:xlink="http://www.w3.org/1999/xlink" width="1024" height="1024" viewBox="0 0 1024 1024">
<g id="icomoon-ignore">
</g>
<path fill="#FFFFFF" d="M204.382 569.945h351.443c32.021 0 58.225-25.978 58.225-57.773s-26.204-57.773-58.225-57.773h-351.443l131.924-130.344c22.646-22.477 22.646-59.073 0-81.832-22.646-22.477-59.468-22.477-82.453 0l-231.207 229.174c-22.646 22.477-22.646 59.073 0 81.832l231.151 228.892c11.295 11.239 26.204 16.999 41.057 16.999s29.762-5.761 41.057-16.999c22.646-22.477 22.646-59.073 0-81.832l-131.529-130.344zM750.775 569.945c32.303 0 58.169-25.978 58.169-57.773s-26.204-57.773-58.169-57.773h-20.049c-32.021 0-58.225 25.978-58.225 57.773s26.204 57.773 58.225 57.773h20.049zM965.774 60.204h-385.044c-32.021 0-58.169 25.978-58.169 57.773s26.204 57.773 58.169 57.773h326.876v672.501h-326.876c-32.021 0-58.169 25.978-58.169 57.773s26.204 57.773 58.169 57.773h385.044c32.021 0 58.169-25.978 58.169-57.773v-788.048c0.057-31.795-26.148-57.773-58.169-57.773z"></path>
</svg>
