<?xml version="1.0" encoding="utf-8"?>
<!-- Generated by IcoMoon.io -->
<!DOCTYPE svg PUBLIC "-//W3C//DTD SVG 1.1//EN" "http://www.w3.org/Graphics/SVG/1.1/DTD/svg11.dtd">
<svg version="1.1" xmlns="http://www.w3.org/2000/svg" xmlns:xlink="http://www.w3.org/1999/xlink" width="1024" height="1024" viewBox="0 0 1024 1024">
<g id="icomoon-ignore">
</g>
<path d="M731.6 228.303l180.858-162.328c11.459-10.24 15.506-26.965 10.289-41.594-5.266-14.58-18.773-24.381-34.085-24.381h-576.562c-19.944 0-36.23 16.92-36.23 37.595v712.949h-37.254c-78.555 0-142.58 66.414-142.58 147.895v87.966c0 20.675 16.286 37.595 36.23 37.595h364.105c19.944 0 36.23-16.92 36.23-37.595s-16.335-37.595-36.23-37.595h-327.826v-50.371c0-40.082 31.403-72.704 70.071-72.704h147.017c25.405 0 48.957 14.434 61.44 37.4 9.655 18.188 31.842 24.674 49.347 14.629s23.747-33.012 14.092-51.2c-25.161-47.006-72.899-76.264-124.635-76.264h-37.303v-675.11h442.856l-138.971 124.733c-8.046 7.119-12.483 17.554-12.483 28.428s4.632 21.309 12.483 28.379l138.971 124.733h-324.267c-19.944 0-36.23 16.92-36.23 37.595s16.335 37.595 36.23 37.595h421.498c15.116 0 28.574-9.801 34.036-24.43 5.218-14.629 1.219-31.354-10.289-41.545l-180.809-162.377z"></path>
</svg>
