<?xml version="1.0" encoding="utf-8"?>
<!-- Generated by IcoMoon.io -->
<!DOCTYPE svg PUBLIC "-//W3C//DTD SVG 1.1//EN" "http://www.w3.org/Graphics/SVG/1.1/DTD/svg11.dtd">
<svg version="1.1" xmlns="http://www.w3.org/2000/svg" xmlns:xlink="http://www.w3.org/1999/xlink" width="1024" height="1024" viewBox="0 0 1024 1024">
<g id="icomoon-ignore">
</g>
<path d="M399.701 21.223c12.601-13.044 30.507-21.223 48.857-19.897 13.927-0.22 26.528 6.633 36.92 15.254 6.19 5.748 15.254 7.074 21.223 13.044 2.432 1.989 1.106 5.305 1.106 7.959-0.443 5.305 2.432 10.169 3.758 15.254 4.201 12.381 3.758 25.423 3.095 38.246-0.663 4.421-1.326 9.949-5.527 12.381-5.527 3.316-11.495 5.968-17.686 7.959-2.875 9.285 4.642 18.569 0.663 27.634 11.717 0.443 23.213-3.095 34.045-7.296 3.095-0.443 6.19-0.22 9.506-0.22 1.326-8.622 3.538-17.022 4.421-25.423 1.106-0.22 3.316-0.22 4.421-0.22 0.22 6.19 0.443 12.381 1.547 18.569 3.316 0.663 6.633 1.326 10.169 1.547 0.663 2.432 1.326 4.864 1.989 7.074 64.554-0.22 128.885 0.22 193.437-0.22 0.443 3.758 0.663 7.517 0.884 11.275 1.326 0 3.538-0.22 4.642-0.22 1.547-13.485 0.22-27.191 0.663-40.678 2.432 0 4.864 0 7.517 0 0 9.063 0 18.128 0 27.414-0.443 4.421 2.652 7.959 4.201 11.938 1.989-1.547 3.979-3.316 6.19-4.642 4.421 4.864 1.547 11.054 0.884 16.802 16.802 0.663 33.824 0 50.625 0.22 3.979 0.663 6.633-4.201 10.39-3.979 9.506 3.095 19.897 1.106 29.623 1.769 0.884 4.864 0.884 9.726 0.663 14.37-10.169 0.884-20.781-1.989-30.287 2.432-3.758-0.884-6.633-4.201-10.612-3.979-15.254 0.22-30.507-0.443-45.762 0.22-9.285 3.316-19.454 2.432-28.74 0.443-0.22 3.979-0.22 7.959-0.22 11.717-26.086 0.22-52.173-0.22-78.038 0.22-4.201 1.769-7.959 4.421-12.381 5.527-0.663 3.095 0.443 7.296-2.875 9.285-6.633 4.864-10.169 12.601-17.243 17.022-3.758 18.569 4.642 36.477 6.633 54.826-5.085 0.884-10.169 2.432-15.033 4.201-2.652 11.495-5.085 22.992-6.853 34.708-1.769 10.169-7.737 20.338-17.022 25.423-6.853 4.201-10.39 12.381-17.686 15.917-5.527 2.875-12.822 5.968-18.128 1.547-5.527-3.979-12.601-0.884-18.569-3.538-21.886-8.622-41.782-21.444-61.458-34.265 0.443 8.4-2.875 15.917-5.748 23.655 5.748 2.875 12.381 5.085 16.359 10.169 3.095 5.527 4.864 11.938 5.305 18.349 0.443 23.876-2.875 47.752-3.758 71.848 0.443 14.813-7.074 28.518-15.033 40.456-7.296 0.663-13.485-2.875-19.897-5.305-1.769 3.538-3.758 7.296-5.305 11.054 0.884 8.4 3.095 16.58 4.642 24.759 0.443 3.538 2.652 6.411 4.864 9.063 19.012 22.55 34.488 48.194 45.54 75.606 10.612 25.202 19.454 51.067 28.077 76.933 2.212 0 4.864 0 7.296 0.22 1.326 6.633 0.443 13.264 1.989 19.897 2.432 5.305 5.527 10.612 5.085 16.58-0.663 19.675-2.652 39.35-3.758 59.026-0.663 13.264-3.095 26.308-5.085 39.35-1.769 12.822 3.979 24.982 2.875 37.583-0.663 6.853-0.22 14.59-4.201 20.56-5.305 7.517-1.769 17.243-3.095 25.865-1.769 13.264-1.106 26.749 1.989 39.572 3.979 7.959 10.39 14.59 15.476 21.886 7.074 8.18 12.601 19.454 24.096 21.886 9.285 1.989 17.906 6.853 25.202 12.822 5.968 6.853 3.095 16.359 0.884 24.096-4.864 0.443-9.726 0.663-14.59 1.547-19.012 2.432-38.246 0.443-57.258-1.769-9.063-2.652-18.128-6.411-27.414-8.843-12.822 2.212-27.414 5.305-39.129-2.212-1.326-17.022 4.421-33.161 7.074-49.741 1.326-5.527 6.411-10.169 5.527-16.359-0.663-17.686-1.769-35.593-2.875-53.279 0.22-4.864-6.853-6.19-5.968-11.275 0.443-11.495-4.864-21.886-6.19-33.382-2.652-22.107-4.864-44.214-4.421-66.543-0.663-7.517 8.622-10.832 8.18-18.128 0.22-9.506 1.769-19.012 1.547-28.297-1.989-5.085-5.085-9.285-7.737-13.927-9.063 0.443-20.118 2.652-27.634-3.758-11.938-19.234-23.213-38.687-35.151-57.921-3.979-6.19-7.296-13.044-11.938-18.791-5.748-1.769-11.938-0.884-17.243-3.758-7.959-7.074-11.054-17.686-15.476-26.971-1.769 7.959-3.095 16.359-7.959 22.992-4.201 6.411-11.054 11.054-13.264 18.569-5.748 15.476-11.275 30.95-16.359 46.646-4.201 11.938-1.989 25.423-7.737 36.92-2.652 4.421-8.4 5.748-11.717 9.726-3.316 6.853-5.527 14.148-9.726 20.56-3.316 5.085-11.054 6.411-12.158 12.822-1.989 6.853-5.085 13.044-7.737 19.675-1.326 7.517 3.095 15.033 1.547 22.55-3.758 18.128-11.938 34.928-19.454 51.73-4.864 12.822-7.296 26.528-13.264 38.909-2.212 4.642-7.959 5.748-12.601 7.074-5.085 14.148-11.275 27.855-13.927 42.445-0.663 13.707-1.989 27.191-0.663 40.678 0.22 7.074 5.527 12.822 6.19 19.675 0.663 6.411-0.663 12.601-1.989 18.569-9.949-0.22-19.454 3.095-29.403 2.212-12.381 0.884-24.539-0.884-36.256-4.421-2.875-14.37-4.421-29.844-0.443-44.214 7.074-26.971 12.601-54.162 19.234-81.354 1.106-4.421-5.305-6.19-5.527-10.39-0.22-7.737-0.22-15.476 0.22-23.213 2.432-15.254 13.044-26.971 17.465-41.341 1.547-5.748 1.106-11.717 1.769-17.686 0.663-12.381 7.074-23.213 12.381-34.265 4.642-8.843 8.4-18.349 14.813-26.086 2.652-2.875 3.979-6.853 5.305-10.612 1.989-6.411 6.19-11.717 9.285-17.686 2.652-5.748 2.875-12.158 2.212-18.569-1.547-11.938-1.326-24.096 0.22-36.034 2.652-23.433 6.411-46.425 10.39-69.638-2.212-2.875-4.864-5.527-6.19-9.063-0.443-3.538 0.663-7.074 1.326-10.39-1.547-2.875-3.316-5.748-4.864-8.843 2.212-4.201 4.421-8.18 6.633-12.381-2.432-1.989-4.864-3.979-7.074-5.968 1.326-7.517 2.432-15.476 5.748-22.55 1.769-4.201 6.853-3.758 10.39-4.421-0.22-15.696-1.547-31.392-2.875-47.089-3.316-15.917-3.979-32.498-3.538-48.857-0.443-5.527 4.642-9.063 8.622-12.158 5.085-3.758 11.495-4.421 17.686-5.305-11.717-2.875-23.876-3.979-35.151-8.622-1.989-3.316-0.884-7.517-1.106-11.275 0.663-15.033 5.748-29.623 5.968-44.657 0.663-11.938 1.106-23.876 1.326-36.034 0.663-3.758 0.22-8.4 3.538-10.832 4.421-4.201 10.832-2.652 16.359-2.652 6.411 0.663 12.381-2.432 18.349-3.979 1.769-6.853-0.884-13.707-1.547-20.781-2.432-20.781-0.443-41.782 3.538-62.342 4.642-23.433 14.37-46.425 30.729-64.331 11.938-12.601 29.403-19.454 46.646-19.012 6.411 0.22 9.726 6.411 14.37 9.949 1.769-2.652 4.642-4.864 5.527-7.959-2.212-10.612-6.853-21.001-5.968-32.055 0.884-23.213 7.074-47.752 23.655-64.774zM583.189 195.206v0c0.22 4.421 0.663 8.843-0.443 13.264-2.212 0.22-4.421 0.443-6.633 0.443-0.22 0.884-0.663 2.212-0.884 3.095 7.737-0.443 15.696 0.663 23.433-0.884 3.979-4.642 1.989-11.275 1.989-17.022-5.968 0-11.938-0.884-17.465 1.106zM563.514 221.734v0c5.305 7.737 8.843 16.359 13.264 24.759 7.074-10.39 13.044-21.444 20.781-31.392-9.949-0.443-19.897 0.884-29.623-1.326-1.547 2.652-3.095 5.305-4.421 7.959z"></path>
</svg>
