<?xml version="1.0" encoding="utf-8"?>
<!-- Generated by IcoMoon.io -->
<!DOCTYPE svg PUBLIC "-//W3C//DTD SVG 1.1//EN" "http://www.w3.org/Graphics/SVG/1.1/DTD/svg11.dtd">
<svg version="1.1" xmlns="http://www.w3.org/2000/svg" xmlns:xlink="http://www.w3.org/1999/xlink" width="1024" height="1024" viewBox="0 0 1024 1024">
<g id="icomoon-ignore">
</g>
<path fill="#f7b517" d="M1003.988 273.923l-167.547-169.273c-26.971-27.079-70.881-27.457-98.176-0.377l-237.241 236.864c-26.971 27.079-27.349 71.097-0.377 98.554 26.971 27.079 70.881 27.457 98.23 0.377l187.937-187.829 70.072 70.719-457.112 456.465-232.279-234.22 70.503-70.342 112.849 114.035c26.971 27.079 70.881 27.457 98.176 0.377 26.971-27.079 27.349-71.097 0.377-98.554l-161.721-163.501c-13.108-13.108-30.424-20.444-48.927-20.444 0 0 0 0-0.377 0-18.503 0-35.818 7.337-48.927 20.121l-169.057 168.464c-13.108 13.162-20.39 30.531-20.39 49.088s7.337 36.357 20.013 49.088l329.646 332.774c13.108 13.162 30.424 20.498 48.927 20.498 0 0 0 0 0.377 0 18.503 0 35.818-7.337 48.927-20.121l555.721-554.642c13.108-13.162 20.39-30.531 20.39-49.088 0-18.503-7.337-36.303-20.013-49.034z"></path>
</svg>
