<?xml version="1.0" encoding="utf-8"?>
<!-- Generated by IcoMoon.io -->
<!DOCTYPE svg PUBLIC "-//W3C//DTD SVG 1.1//EN" "http://www.w3.org/Graphics/SVG/1.1/DTD/svg11.dtd">
<svg version="1.1" xmlns="http://www.w3.org/2000/svg" xmlns:xlink="http://www.w3.org/1999/xlink" width="1024" height="1024" viewBox="0 0 1024 1024">
<g id="icomoon-ignore">
</g>
<path fill="#6F6D69" d="M873.917 150.038c-96.746-96.568-225.191-150.038-361.917-150.038s-265.35 53.293-361.962 150.038c-96.746 96.612-150.038 225.235-150.038 361.962s53.293 265.35 150.038 361.917c96.612 96.79 225.235 150.083 361.962 150.083s265.35-53.293 361.962-150.038c96.568-96.79 150.038-225.235 150.038-361.962s-53.293-265.35-150.083-361.962zM512 949.070c-240.996 0-437.070-196.074-437.070-437.070 0-241.041 196.074-437.070 437.070-437.070s437.070 196.074 437.070 437.070c0 240.996-196.074 437.070-437.070 437.070zM687.015 290.549c-14.559-14.559-38.289-14.781-53.070-0.223l-128.223 127.599c-14.559 14.559-14.781 38.289-0.223 53.070 14.559 14.559 38.289 14.781 53.070 0.223l101.554-101.153 37.888 38.066-247.051 245.805-125.507-126.13 38.066-37.888 60.995 61.395c14.559 14.559 38.289 14.781 53.070 0.223 14.559-14.559 14.781-38.289 0.223-53.070l-87.352-88.019c-7.079-7.079-16.429-11.041-26.446-11.041 0 0 0 0-0.223 0-9.973 0-19.367 3.962-26.446 10.819l-91.359 90.735c-7.079 7.079-11.041 16.429-11.041 26.446 0 9.973 3.962 19.545 10.819 26.446l178.176 179.2c7.079 7.079 16.429 11.041 26.446 11.041 0 0 0 0 0.223 0 9.973 0 19.367-3.962 26.446-10.819l300.344-298.652c7.079-7.079 11.041-16.429 11.041-26.446 0-9.973-3.962-19.545-10.819-26.446l-90.602-91.181z"></path>
</svg>
