<?xml version="1.0" encoding="utf-8"?>
<!-- Generated by IcoMoon.io -->
<!DOCTYPE svg PUBLIC "-//W3C//DTD SVG 1.1//EN" "http://www.w3.org/Graphics/SVG/1.1/DTD/svg11.dtd">
<svg version="1.1" xmlns="http://www.w3.org/2000/svg" xmlns:xlink="http://www.w3.org/1999/xlink" width="1024" height="1024" viewBox="0 0 1024 1024">
<g id="icomoon-ignore">
</g>
<path d="M840.667 537.952c3.892 0.294 6.828 3.745 6.534 7.635s-3.745 6.828-7.635 6.534l-33.627-2.644c-3.965-0.367-6.828-3.745-6.534-7.635s3.671-6.828 7.635-6.534l33.627 2.644zM23.348 142.729h977.377c6.387 0 12.188 2.644 16.447 6.828v0 0.073c4.258 4.185 6.828 10.059 6.828 16.447v691.918c0 6.387-2.569 12.188-6.828 16.447v0c-4.185 4.258-10.059 6.828-16.447 6.828h-977.377c-6.461 0-12.261-2.569-16.52-6.828-4.185-4.258-6.828-10.059-6.828-16.447v-691.918c0-6.461 2.644-12.261 6.828-16.52v0c4.258-4.185 10.132-6.828 16.52-6.828zM1000.725 152.86h-977.377c-3.671 0-6.975 1.469-9.324 3.892v0c-2.423 2.423-3.892 5.654-3.892 9.324v691.918c0 3.597 1.469 6.902 3.892 9.251 2.423 2.423 5.654 3.892 9.324 3.892h847.129c-8.958-6.608-27.313-15.272-44.272-23.275-6.902-3.304-13.656-6.461-19.603-9.472h0.073l-0.294-0.147c-14.685-8.296-24.816-21.365-41.409-42.805-12.775-16.52-29.441-38.106-55.212-66.446-1.469-1.615-2.203-3.818-1.835-6.021 1.689-9.618 5.58-18.209 10.793-24.449 3.231-3.965 6.975-7.048 11.013-8.958 4.406-2.129 9.178-2.937 13.95-2.129 3.892 0.661 7.709 2.423 11.307 5.359v0c0.147 0.147 0.294 0.22 0.367 0.367l38.546 36.93-61.012-152.568c-2.644-6.682-2.349-13.876 0.294-20.044s7.635-11.38 14.317-14.097l6.975-2.863 0.147-0.073c6.682-2.717 13.876-2.349 19.971 0.294 6.021 2.569 11.013 7.342 13.803 13.656 0.073 0.22 0.147 0.367 0.22 0.587l0.073 0.147 29.295 73.347 12.702-5.066c6.755-2.717 13.95-2.423 20.117 0.22 3.524 1.542 6.755 3.818 9.397 6.828l11.307-4.552c6.755-2.717 13.95-2.423 20.117 0.22 5.727 2.496 10.646 7.048 13.51 13.069l14.244-5.727c6.755-2.717 13.95-2.423 20.117 0.22 6.241 2.717 11.454 7.709 14.097 14.464l34.434 86.049 0.147 0.294c9.985 28.34 6.682 50.073 3.892 68.502-1.835 12.555-3.524 23.348 0.22 32.599v0.147l13.142 34.508c1.689-0.661 3.304-1.689 4.552-3.010h0.073c2.349-2.349 3.818-5.654 3.818-9.251v-691.918c0-3.671-1.469-6.975-3.818-9.324h-0.073c-2.349-2.423-5.654-3.892-9.251-3.892zM888.905 871.136h101.687l-11.527-30.396c-5.066-12.848-3.231-25.33-1.028-39.868 2.569-16.813 5.507-36.71-3.231-61.674l-34.361-85.829c-1.248-3.083-3.597-5.359-6.461-6.608s-6.241-1.395-9.324-0.147l-14.244 5.727 11.674 29.148c1.395 3.597-0.367 7.709-3.965 9.178s-7.783-0.294-9.178-3.965l-16.373-40.895c-1.248-3.083-3.671-5.359-6.534-6.608s-6.168-1.395-9.251-0.147l-9.912 3.965 17.695 44.199c1.469 3.597-0.294 7.783-3.965 9.178-3.597 1.469-7.709-0.294-9.178-3.892l-19.676-49.192c-1.248-3.083-3.671-5.433-6.534-6.608-2.863-1.248-6.168-1.395-9.251-0.147l-12.702 5.066 20.851 52.129c1.469 3.671-0.294 7.783-3.892 9.251-3.671 1.469-7.783-0.294-9.251-3.965l-55.506-138.765-0.073-0.294c-1.321-2.863-3.597-5.066-6.387-6.241s-6.094-1.395-9.104-0.147l-0.147 0.073-6.902 2.79c-3.083 1.248-5.433 3.671-6.682 6.608-1.175 2.79-1.321 6.168-0.147 9.178l73.201 182.964c1.469 3.597-0.294 7.783-3.965 9.178-2.644 1.101-5.58 0.441-7.562-1.469l-61.82-59.25c-1.542-1.248-3.158-1.982-4.625-2.276-1.762-0.294-3.597 0.073-5.359 0.955-2.203 1.028-4.332 2.79-6.241 5.139-3.158 3.745-5.654 8.81-7.048 14.537 24.669 27.386 41.043 48.531 53.523 64.757 15.492 19.897 24.889 32.158 36.857 38.986v0c5.727 2.863 12.408 6.021 19.31 9.324 24.449 11.527 51.615 24.376 56.608 36.050zM724.442 493.239c-1.395-3.671 0.441-7.783 4.111-9.178 3.597-1.395 7.709 0.441 9.104 4.038l12.261 31.498c1.469 3.671-0.367 7.783-4.038 9.178-3.597 1.395-7.709-0.441-9.104-4.038l-12.335-31.498zM675.324 536.484c-3.597-1.615-5.286-5.8-3.671-9.324 1.542-3.597 5.727-5.286 9.324-3.671l30.91 13.583c3.597 1.542 5.213 5.727 3.671 9.324-1.542 3.524-5.727 5.213-9.324 3.597l-30.91-13.51zM790.154 480.905c1.542-3.597 5.727-5.213 9.324-3.671 3.597 1.615 5.213 5.8 3.671 9.324l-13.583 30.983c-1.615 3.524-5.727 5.213-9.324 3.597-3.597-1.542-5.213-5.727-3.671-9.251l13.583-30.983zM692.798 609.317c-2.717 2.863-7.196 3.010-10.059 0.367s-3.010-7.121-0.367-9.985l22.981-24.743c2.717-2.863 7.196-3.010 10.059-0.367s3.010 7.121 0.367 9.985l-22.981 24.743z"></path>
</svg>
