<?xml version="1.0" encoding="utf-8"?>
<!-- Generated by IcoMoon.io -->
<!DOCTYPE svg PUBLIC "-//W3C//DTD SVG 1.1//EN" "http://www.w3.org/Graphics/SVG/1.1/DTD/svg11.dtd">
<svg version="1.1" xmlns="http://www.w3.org/2000/svg" xmlns:xlink="http://www.w3.org/1999/xlink" width="1024" height="1024" viewBox="0 0 1024 1024">
<g id="icomoon-ignore">
</g>
<path d="M516.539 158.819c10.588 1.513 18.151 10.588 16.638 19.663 0 10.588-9.075 18.151-18.151 16.638l-86.216-6.050c-10.588-1.513-18.151-9.075-16.638-19.663 0-10.588 9.075-18.151 19.663-16.638l84.703 6.050zM525.614 558.135c4.538 9.075 0 19.663-9.075 22.688-10.588 4.538-19.663 0-24.201-10.588l-142.181-353.939c-3.025-7.563-9.075-13.613-16.638-16.638-6.050-3.025-15.125-3.025-22.688 0v0l-18.151 7.563c-7.563 3.025-13.613 9.075-16.638 16.638s-3.025 15.125 0 22.688l186.045 467.381c4.538 9.075 0 19.663-9.075 24.201-7.563 3.025-15.125 0-19.663-4.538l-158.819-151.256c-3.025-3.025-7.563-4.538-10.588-6.050-4.538 0-10.588 1.513-15.125 3.025-4.538 3.025-10.588 7.563-15.125 13.613-7.563 9.075-15.125 22.688-18.151 36.301 63.528 69.578 104.366 124.029 136.13 166.382 40.839 49.915 65.040 81.678 95.291 98.316v0c13.613 7.563 31.763 16.638 48.402 24.201 63.528 30.251 133.105 62.015 145.206 92.266v0 0l4.538 13.613h-39.326c-7.563-18.151-69.578-46.889-125.542-72.603-18.151-9.075-34.788-16.638-49.915-24.201v0l-1.513-1.513c-36.301-19.663-62.015-54.453-104.366-108.904-33.276-42.351-75.628-96.804-142.181-169.407-3.025-4.538-4.538-9.075-4.538-15.125 4.538-24.201 15.125-46.889 27.226-62.015 9.075-10.588 18.151-18.151 28.738-24.201 12.1-4.538 24.201-7.563 36.301-4.538 9.075 1.513 19.663 6.050 28.738 13.613v0c0 0 0 0 0 1.513l98.316 93.779-155.794-390.24c-6.050-16.638-6.050-34.788 1.513-51.427 6.050-15.125 19.663-28.738 36.301-34.788l18.151-7.563c16.638-7.563 36.301-6.050 51.427 0s27.226 19.663 34.788 34.788c0 1.513 0 1.513 1.513 1.513v0 0 0l74.116 187.557 33.276-12.1c16.638-7.563 34.788-6.050 49.915 0 10.588 4.538 18.151 10.588 24.201 18.151l28.738-12.1c18.151-7.563 36.301-6.050 51.427 0 15.125 7.563 27.226 18.151 34.788 33.276l36.301-13.613c18.151-7.563 36.301-6.050 51.427 0 16.638 7.563 30.251 19.663 36.301 36.301l87.728 220.833c25.713 72.603 18.151 128.567 10.588 175.457-4.538 31.763-9.075 58.99 0 83.191v0 0l39.326 104.366h-37.814l-34.788-90.754c-13.613-33.276-7.563-65.040-3.025-102.854 7.563-42.351 15.125-93.779-7.563-157.306l-87.728-219.321c-3.025-7.563-9.075-13.613-16.638-16.638s-16.638-3.025-24.201 0l-36.301 15.125 30.251 74.116c3.025 9.075-1.513 19.663-10.588 22.688-9.075 4.538-19.663 0-22.688-9.075l-42.351-104.366c-3.025-9.075-9.075-15.125-16.638-18.151s-15.125-3.025-24.201 0l-24.201 10.588 43.864 111.929c4.538 10.588 0 21.176-9.075 24.201s-19.663-1.513-24.201-10.588l-49.915-125.542c-3.025-7.563-9.075-13.613-16.638-16.638s-15.125-3.025-24.201 0l-31.763 12.1 52.94 134.617zM220.077 45.377c-3.025-9.075 1.513-19.663 10.588-22.688 9.075-4.538 19.663 0 22.688 9.075l31.763 80.166c4.538 10.588 0 21.176-10.588 24.201-9.075 3.025-19.663-1.513-22.688-10.588l-31.763-80.166zM94.534 155.794c-9.075-4.538-13.613-15.125-9.075-24.201s15.125-13.613 24.201-9.075l78.653 34.788c9.075 4.538 13.613 15.125 9.075 24.201s-15.125 12.1-24.201 9.075l-78.653-34.788zM387.972 13.613c4.538-9.075 15.125-13.613 24.201-9.075s13.613 15.125 9.075 24.201l-34.788 78.653c-4.538 9.075-15.125 13.613-24.201 9.075s-12.1-15.125-9.075-24.201l34.788-78.653zM139.912 341.839c-7.563 7.563-18.151 7.563-25.713 1.513-7.563-7.563-7.563-18.151-1.513-25.713l58.99-63.528c6.050-7.563 18.151-7.563 25.713-1.513 7.563 7.563 7.563 18.151 0 25.713l-57.478 63.528z"></path>
</svg>
