<?xml version="1.0" encoding="utf-8"?>
<!-- Generated by IcoMoon.io -->
<!DOCTYPE svg PUBLIC "-//W3C//DTD SVG 1.1//EN" "http://www.w3.org/Graphics/SVG/1.1/DTD/svg11.dtd">
<svg version="1.1" xmlns="http://www.w3.org/2000/svg" xmlns:xlink="http://www.w3.org/1999/xlink" width="1024" height="1024" viewBox="0 0 1024 1024">
<g id="icomoon-ignore">
</g>
<path fill="#f7b517" d="M873.409 150.589c-96.376-96.376-222.87-150.588-361.411-150.588s-265.035 54.212-361.411 150.588c-96.376 96.376-150.588 222.87-150.588 361.411s54.212 265.035 150.588 361.411c96.376 96.376 222.87 150.588 361.411 150.588 84.329 0 168.659-18.071 240.941-60.235 18.071-12.047 24.095-30.117 18.071-48.188s-30.117-24.095-48.188-18.071c-60.235 30.117-132.518 48.188-204.799 48.188-240.941 0-433.693-198.776-433.693-433.693 0-240.941 198.776-433.693 433.693-433.693 240.941 0 433.693 198.776 433.693 433.693 0 78.306-24.095 126.494-42.164 150.588s-48.188 42.164-72.283 42.164c-36.141 0-78.306-30.117-78.306-96.376v-295.153c0-18.071-18.071-36.141-36.141-36.141s-36.141 18.071-36.141 36.141v18.071c-48.188-48.188-114.447-78.306-180.706-78.306-144.564 0-259.011 114.447-259.011 259.011s114.447 259.011 259.011 259.011c24.095 0 48.188-6.024 72.283-12.047 18.071-6.024 30.117-24.095 24.095-48.188-6.024-18.071-24.095-30.117-48.188-24.095-18.071 6.024-36.141 6.024-54.212 6.024-102.4 0-180.706-84.329-180.706-180.706 0-102.4 84.329-180.706 180.706-180.706 102.4 0 180.706 84.329 180.706 180.706v96.376c0 114.447 78.306 174.682 150.588 174.682 48.188 0 102.4-24.095 132.518-72.283 36.141-48.188 60.235-114.447 60.235-198.776 0-138.54-54.212-265.035-150.588-361.411z"></path>
</svg>
