<?xml version="1.0" encoding="utf-8"?>
<!-- Generated by IcoMoon.io -->
<!DOCTYPE svg PUBLIC "-//W3C//DTD SVG 1.1//EN" "http://www.w3.org/Graphics/SVG/1.1/DTD/svg11.dtd">
<svg version="1.1" xmlns="http://www.w3.org/2000/svg" xmlns:xlink="http://www.w3.org/1999/xlink" width="1024" height="1024" viewBox="0 0 1024 1024">
<g id="icomoon-ignore">
</g>
<path fill="#646360" d="M862.764 175.38c-16.973-16.973-39.602-16.973-50.917 0l-113.15 113.15c-16.973 11.315-16.973 33.944 0 50.917s39.602 16.973 50.917 0l84.862-84.862c141.436 164.067 130.121 418.653-22.63 571.404-164.067 164.067-435.624 164.067-599.691 0s-164.067-435.624 0-599.691c101.834-101.834 248.928-147.094 384.707-113.15 16.973 5.658 39.602-11.315 45.26-28.287 5.658-22.63-11.315-39.602-28.287-45.26-164.067-39.602-333.79 11.315-452.597 135.779-96.177 90.519-147.094 214.984-147.094 350.763s50.917 260.243 147.094 350.763c96.177 96.177 220.641 147.094 350.763 147.094s260.243-50.917 350.763-147.094c96.177-96.177 147.094-220.641 147.094-350.763 0-135.779-50.917-260.243-147.094-350.763zM472.399 214.982v294.188l-147.094 147.094c-16.973 16.973-16.973 39.602 0 50.917 5.658 5.658 16.973 11.315 28.287 11.315s16.973-5.658 28.287-11.315l158.409-158.409c0 0 0 0 0 0s0 0 0 0 0 0 0 0 0 0 0 0 0 0 0 0 0 0 0 0 0 0 0 0 0 0 0 0 0 0 0 0 0 0 0 0 0 0 0 0 0 0 0 0 0 0 0 0 0 0 0-5.658v-328.133c0-22.63-16.973-39.602-39.602-39.602-11.315 5.658-28.287 22.63-28.287 39.602z"></path>
</svg>
