<?xml version="1.0" encoding="utf-8"?>
<!-- Generated by IcoMoon.io -->
<!DOCTYPE svg PUBLIC "-//W3C//DTD SVG 1.1//EN" "http://www.w3.org/Graphics/SVG/1.1/DTD/svg11.dtd">
<svg version="1.1" xmlns="http://www.w3.org/2000/svg" xmlns:xlink="http://www.w3.org/1999/xlink" width="1024" height="1024" viewBox="0 0 1024 1024">
<g id="icomoon-ignore">
</g>
<path fill="#FFFFFF" d="M465.005 278.259c0-25.971 21.024-46.995 46.995-46.995s46.995 21.024 46.995 46.995v37.101c0 25.971-21.024 46.995-46.995 46.995s-46.995-21.024-46.995-46.995v-37.101zM512 0c140.986 0 268.367 56.889 361.121 149.643h1.237c91.517 92.754 149.643 221.372 149.643 362.357s-58.126 269.604-149.643 362.357h-1.237c-92.754 91.517-220.135 149.643-361.121 149.643s-269.604-58.126-362.357-149.643c-92.754-92.754-149.643-221.372-149.643-362.357s56.889-269.604 149.643-362.357v0c92.754-92.754 221.372-149.643 362.357-149.643zM807.574 215.186c-75.44-75.44-180.56-122.435-295.575-122.435-116.251 0-220.135 46.995-296.812 122.435v0c-75.44 76.676-122.435 180.56-122.435 296.812 0 115.014 46.995 220.135 122.435 295.575 76.676 76.676 180.56 123.671 296.812 123.671 115.014 0 220.135-46.995 295.575-123.671v0c76.676-75.44 123.671-180.56 123.671-295.575 0-116.251-46.995-220.135-123.671-296.812zM465.005 457.583c0-25.971 21.024-46.995 46.995-46.995s46.995 21.024 46.995 46.995v333.913c0 25.971-21.024 46.995-46.995 46.995s-46.995-21.024-46.995-46.995v-333.913z"></path>
</svg>
