<?xml version="1.0" encoding="utf-8"?>
<!-- Generated by IcoMoon.io -->
<!DOCTYPE svg PUBLIC "-//W3C//DTD SVG 1.1//EN" "http://www.w3.org/Graphics/SVG/1.1/DTD/svg11.dtd">
<svg version="1.1" xmlns="http://www.w3.org/2000/svg" xmlns:xlink="http://www.w3.org/1999/xlink" width="1024" height="1024" viewBox="0 0 1024 1024">
<g id="icomoon-ignore">
</g>
<path d="M564.89 456.075c-6.005-5.828-12.947-10.455-20.83-13.888-7.891-3.422-16.456-5.143-25.713-5.143-8.23 0-16.203 1.72-23.917 5.143-7.714 3.43-14.396 8.060-20.055 13.888-5.658 5.832-10.206 12.687-13.628 20.57-3.433 7.891-5.143 16.12-5.143 24.685 0 8.919 1.709 17.227 5.143 24.945 3.422 7.714 7.97 14.487 13.628 20.314 5.658 5.835 12.341 10.462 20.055 13.884 7.714 3.43 15.688 5.143 23.917 5.143 9.257 0 17.822-1.713 25.713-5.143 7.883-3.422 14.825-8.053 20.83-13.884 5.993-5.824 10.711-12.6 14.144-20.314 3.422-7.714 5.143-16.023 5.143-24.945 0-8.565-1.72-16.794-5.143-24.685-3.43-7.883-8.151-14.739-14.144-20.57zM838.234 314.647c-16.117-27.426-35.482-52.457-58.116-75.083-22.626-22.63-47.657-41.916-75.083-57.856-27.437-15.944-56.919-28.367-88.459-37.286-31.548-8.911-64.286-13.372-98.225-13.372-33.943 0-66.688 4.461-98.229 13.372-31.548 8.919-61.030 21.342-88.456 37.286-27.441 15.94-52.461 35.226-75.091 57.852-22.626 22.626-41.999 47.657-58.112 75.083-16.12 27.437-28.634 56.919-37.542 88.459-8.919 31.548-13.372 64.286-13.372 98.225 0 33.943 4.454 66.692 13.372 98.229 8.911 31.548 21.421 61.033 37.542 88.459 16.113 27.433 35.486 52.454 58.112 75.083 22.63 22.63 47.654 41.912 75.087 57.856 27.426 15.944 56.911 28.367 88.456 37.286 31.541 8.911 64.286 13.368 98.229 13.368s66.68-4.461 98.225-13.368c31.541-8.919 61.026-21.346 88.459-37.286 27.426-15.944 52.457-35.23 75.083-57.856 22.63-22.63 41.995-47.65 58.116-75.083 16.113-27.426 28.623-56.911 37.542-88.459 8.911-31.537 13.368-64.286 13.368-98.229s-4.461-66.68-13.368-98.225c-8.915-31.541-21.429-61.022-37.538-88.456zM746.688 595.347c-12.341 29.975-30.174 56.941-53.485 80.915-24.004 23.296-50.835 41.111-80.489 53.436-29.658 12.326-61.12 18.488-94.37 18.488-33.943 0-65.916-6.588-95.917-19.776-30.005-13.184-56.143-30.991-78.43-53.429-22.287-22.434-39.944-48.632-52.969-78.603-13.033-29.967-19.543-61.73-19.543-95.304 0-33.22 6.509-64.817 19.543-94.788 13.026-29.963 30.765-56.162 53.225-78.6 22.453-22.434 48.681-40.241 78.686-53.429 29.997-13.188 61.794-19.787 95.401-19.787 33.596 0 65.314 6.6 95.142 19.787s55.97 30.995 78.43 53.429c22.449 22.438 40.282 48.553 53.485 78.347 13.195 29.798 19.802 61.481 19.802 95.040 0.008 32.881-6.163 64.309-18.511 94.272zM936.354 467.998v88h87.646v-88h-87.646zM0 555.998h88.708v-88h-88.708v88zM468.002 1024h88v-87.646h-88v87.646zM556.002 0h-88v88.704h88v-88.704z"></path>
</svg>
