<?xml version="1.0" encoding="utf-8"?>
<!-- Generated by IcoMoon.io -->
<!DOCTYPE svg PUBLIC "-//W3C//DTD SVG 1.1//EN" "http://www.w3.org/Graphics/SVG/1.1/DTD/svg11.dtd">
<svg version="1.1" xmlns="http://www.w3.org/2000/svg" xmlns:xlink="http://www.w3.org/1999/xlink" width="1024" height="1024" viewBox="0 0 1024 1024">
<g id="icomoon-ignore">
</g>
<path d="M564.663 456.411c-5.851-5.851-11.703-11.703-20.48-14.629s-17.554-5.851-26.331-5.851c-8.777 0-17.554 2.926-23.406 5.851-8.777 2.926-14.629 8.777-20.48 14.629s-8.777 11.703-14.629 20.48c-2.926 8.777-5.851 17.554-5.851 23.406 0 8.777 2.926 17.554 5.851 26.331s8.777 14.629 14.629 20.48c5.851 5.851 11.703 11.703 20.48 14.629s14.629 5.851 23.406 5.851c8.777 0 17.554-2.926 26.331-5.851s14.629-8.777 20.48-14.629c5.851-5.851 11.703-11.703 14.629-20.48s5.851-14.629 5.851-26.331c0-8.777-2.926-17.554-5.851-23.406-2.926-8.777-8.777-14.629-14.629-20.48zM839.68 315.977c-17.554-26.331-35.109-52.663-58.514-76.069s-46.811-40.96-76.069-58.514c-26.331-14.629-55.589-29.257-87.771-38.034s-64.366-14.629-99.474-14.629c-35.109 0-67.291 5.851-99.474 14.629s-61.44 20.48-87.771 38.034c-26.331 14.629-52.663 35.109-76.069 58.514-20.48 23.406-40.96 46.811-55.589 76.069-17.554 26.331-29.257 55.589-38.034 87.771s-14.629 64.366-14.629 96.549 5.851 67.291 14.629 99.474c8.777 32.183 20.48 61.44 38.034 87.771s35.109 52.663 58.514 76.069c23.406 23.406 46.811 40.96 76.069 58.514 26.331 14.629 55.589 29.257 87.771 38.034s64.366 14.629 99.474 14.629c35.109 0 67.291-5.851 99.474-14.629s61.44-20.48 87.771-38.034c26.331-14.629 52.663-35.109 76.069-58.514s40.96-46.811 58.514-76.069c17.554-26.331 29.257-55.589 38.034-87.771s14.629-64.366 14.629-99.474-5.851-67.291-14.629-99.474c-14.629-29.257-26.331-58.514-40.96-84.846zM746.057 593.92c-11.703 29.257-29.257 55.589-52.663 81.92-23.406 23.406-49.737 40.96-81.92 52.663-29.257 11.703-61.44 17.554-93.623 17.554-35.109 0-67.291-5.851-96.549-20.48s-55.589-32.183-78.994-52.663c-23.406-23.406-40.96-49.737-52.663-78.994s-20.48-61.44-20.48-96.549c0-32.183 5.851-64.366 20.48-93.623 11.703-29.257 32.183-55.589 52.663-78.994 23.406-23.406 49.737-40.96 78.994-52.663 29.257-14.629 61.44-20.48 96.549-20.48 32.183 0 64.366 5.851 96.549 20.48 29.257 14.629 55.589 32.183 78.994 52.663 23.406 23.406 40.96 49.737 52.663 78.994 14.629 29.257 20.48 61.44 20.48 93.623 0 38.034-8.777 67.291-20.48 96.549zM936.229 468.114v87.771h87.771v-87.771h-87.771zM0 555.886h87.771v-87.771h-87.771v87.771zM468.114 1024h87.771v-87.771h-87.771v87.771zM555.886 0h-87.771v87.771h87.771v-87.771z"></path>
</svg>
