<?xml version="1.0" encoding="utf-8"?>
<!-- Generated by IcoMoon.io -->
<!DOCTYPE svg PUBLIC "-//W3C//DTD SVG 1.1//EN" "http://www.w3.org/Graphics/SVG/1.1/DTD/svg11.dtd">
<svg version="1.1" xmlns="http://www.w3.org/2000/svg" xmlns:xlink="http://www.w3.org/1999/xlink" width="1024" height="1024" viewBox="0 0 1024 1024">
<g id="icomoon-ignore">
</g>
<path fill="#646360" d="M957.216 300.522c-44.522-105.739-127.999-183.652-233.739-228.173-166.957-72.348-345.043-55.652-489.739 38.956-144.695 89.043-228.173 244.869-228.173 411.826 0 127.999 50.087 250.435 133.565 339.478 83.478 94.609 200.348 150.261 328.347 161.391 0 0 5.565 0 5.565 0 16.696 0 33.391-5.565 50.087-16.696s22.261-33.391 22.261-55.652v-155.826c0 0 0-5.565 0-5.565s0-5.565 0-5.565c0-22.261-16.696-38.956-38.956-38.956-94.609 0-166.957-77.913-166.957-166.957v-111.305h333.913v111.305c0 44.522-22.261 94.609-55.652 122.435-16.696 11.131-16.696 38.956 0 50.087 11.131 16.696 38.956 16.696 50.087 0 50.087-44.522 77.913-111.305 77.913-178.086v-139.13c0-22.261-16.696-38.956-38.956-38.956h-77.913v-122.435c0-22.261-16.696-38.956-38.956-38.956s-33.391 22.261-33.391 38.956v122.435h-100.174v-122.435c0-22.261-16.696-38.956-38.956-38.956s-38.956 22.261-38.956 38.956v122.435h-77.913c-16.696 0-33.391 16.696-33.391 38.956v144.695c0 122.435 89.043 222.609 205.913 239.304v133.565c-217.044-16.696-389.565-205.913-389.565-428.521 0-144.695 72.348-278.26 194.782-356.174 116.87-83.478 267.131-94.609 417.391-33.391 89.043 38.956 161.391 105.739 200.348 194.782 83.478 183.652 44.522 389.565-100.174 517.565-16.696 11.131-16.696 38.956-5.565 50.087 11.131 16.696 38.956 16.696 50.087 5.565 77.913-72.348 133.565-161.391 155.826-261.565 22.261-116.87 11.131-233.739-38.956-339.478z"></path>
</svg>
