<?xml version="1.0" encoding="utf-8"?>
<!-- Generated by IcoMoon.io -->
<!DOCTYPE svg PUBLIC "-//W3C//DTD SVG 1.1//EN" "http://www.w3.org/Graphics/SVG/1.1/DTD/svg11.dtd">
<svg version="1.1" xmlns="http://www.w3.org/2000/svg" xmlns:xlink="http://www.w3.org/1999/xlink" width="1024" height="1024" viewBox="0 0 1024 1024">
<g id="icomoon-ignore">
</g>
<path fill="#646360" d="M989.288 601.673c-69.424-57.853-138.847-98.35-173.56-115.706v-86.779c17.356-17.356 28.926-40.497 28.926-69.424v-127.277c-5.785-86.779-75.21-156.203-161.989-156.203h-28.926c-86.779 0-156.203 69.424-156.203 156.203v133.062c0 23.142 11.571 46.282 28.926 69.424v92.565c-34.712 17.356-109.921 57.853-173.56 115.706-28.926 11.571-40.497 40.497-40.497 69.424v214.057h-242.983v-196.7c0-5.785 0-5.785 5.785-11.571 63.639-52.068 133.062-86.779 144.633-92.565 17.356-5.785 23.142-23.142 23.142-40.497v-104.136c0-11.571-5.785-23.142-17.356-28.926 0 0-5.785-5.785-5.785-5.785v-109.921c0-34.712 28.926-57.853 57.853-57.853h23.142c34.712 0 57.853 28.926 57.853 57.853v109.921c0 5.785-5.785 5.785-5.785 5.785-11.571 11.571-17.356 34.712-5.785 52.068s34.712 23.142 52.068 11.571c23.142-17.356 40.497-40.497 40.497-69.424v-109.921c0-75.21-57.853-133.062-133.062-133.062h-23.142c-75.21 0-133.062 57.853-133.062 133.062v109.921c0 23.142 5.785 40.497 23.142 57.853v63.639c-28.926 17.356-86.779 46.282-138.847 92.565-23.142 17.356-34.712 40.497-34.712 69.424v237.197c0 23.142 17.356 40.497 40.497 40.497h312.407c23.142 0 40.497-17.356 40.497-40.497v-254.554c0-5.785 5.785-17.356 11.571-17.356 80.994-63.639 161.989-109.921 179.345-115.706s23.142-23.142 23.142-40.497v-127.277c0-11.571-5.785-23.142-17.356-28.926-5.785-5.785-11.571-11.571-11.571-17.356v-133.062c0-46.282 34.712-80.994 80.994-80.994h23.142c46.282 0 80.994 34.712 80.994 80.994v133.062c0 5.785-5.785 11.571-11.571 17.356-11.571 5.785-17.356 17.356-17.356 28.926v127.277c0 17.356 11.571 34.712 23.142 40.497 17.356 5.785 98.35 52.068 179.345 115.706 5.785 5.785 11.571 11.571 11.571 17.356v214.057h-439.684c-23.142 0-40.497 17.356-40.497 40.497 0 17.356 17.356 34.712 40.497 34.712h474.396c23.142 0 40.497-17.356 40.497-40.497v-248.768c0-28.926-11.571-57.853-34.712-80.994z"></path>
</svg>
