<?xml version="1.0" encoding="utf-8"?>
<!-- Generated by IcoMoon.io -->
<!DOCTYPE svg PUBLIC "-//W3C//DTD SVG 1.1//EN" "http://www.w3.org/Graphics/SVG/1.1/DTD/svg11.dtd">
<svg version="1.1" xmlns="http://www.w3.org/2000/svg" xmlns:xlink="http://www.w3.org/1999/xlink" width="1418" height="1024" viewBox="0 0 1418 1024">
<g id="icomoon-ignore">
</g>
<path d="M1039.867 181.132l-47.267 82.717c-11.816 11.816-35.45 23.634-47.267 11.816-23.634-11.816-23.634-35.45-11.816-59.084l47.267-70.9c-70.9-35.45-153.617-59.084-236.335-59.084v94.534c0 11.816-11.816 35.45-35.45 35.45s-35.45-23.634-35.45-35.45v-94.534c-82.717 0-165.435 23.634-236.335 59.084l47.267 70.9c11.816 23.634 11.816 47.267-11.816 59.084s-47.267 0-47.267-11.816l-59.084-82.717c-35.45 23.634-70.9 47.267-106.351 82.717-23.634 23.634-47.267 59.084-70.9 94.534l82.717 47.267c11.816 11.816 23.634 35.45 11.816 47.267-11.816 23.634-35.45 23.634-47.267 11.816l-82.717-47.267c-47.267 82.717-70.9 165.435-70.9 259.968h94.534c11.816 0 35.45 11.816 35.45 35.45s-23.634 35.45-35.45 35.45h-94.534c0 11.816 0 23.634 0 23.634 0 11.816 0 35.45 0 47.267 82.717 23.634 165.435 47.267 248.152 70.9 165.435 35.45 307.235 59.084 319.052 59.084h118.167c11.816 0 153.617-23.634 307.235-59.084 94.534-23.634 177.251-47.267 248.152-70.9 11.816-11.816 11.816-35.45 11.816-47.267 0 0 0-11.816 0-23.634h-94.534c-23.634 0-35.45-11.816-35.45-35.45s11.816-35.45 35.45-35.45h94.534c0-94.534-23.634-177.251-70.9-259.968l-82.717 47.267c-11.816 11.816-35.45 11.816-47.267-11.816-11.816-11.816-11.816-35.45 11.816-47.267l82.717-47.267c-23.634-35.45-47.267-70.9-70.9-94.534-35.45-35.45-70.9-59.084-118.167-82.717zM708.999 3.88c189.068 0 366.319 82.717 496.303 212.701 47.267 35.45 82.717 82.717 106.351 129.985v0 0c70.9 106.351 106.351 224.518 106.351 366.319v0 0c0 23.634 0 47.267-11.816 70.9 0 23.634 0 47.267 0 70.9-11.816 11.816-11.816 23.634-23.634 23.634v0c-82.717 35.45-189.068 59.084-283.602 82.717-165.435 47.267-319.052 59.084-330.868 59.084h-118.167c-23.634 0-165.435-11.816-330.868-59.084-94.534-23.634-200.885-47.267-283.602-82.717-11.816 0-23.634-11.816-23.634-23.634 0-23.634-11.816-47.267-11.816-70.9s0-47.267 0-70.9c0-200.885 82.717-378.135 212.701-496.303 118.167-129.985 295.418-212.701 496.303-212.701zM708.999 630.167c23.634 0 35.45 0 59.084 11.816l283.602-330.868c11.816-11.816 35.45-11.816 59.084 0 11.816 11.816 11.816 35.45 0 47.267l-283.602 330.868c11.816 23.634 23.634 59.084 23.634 82.717 0 47.267-11.816 82.717-35.45 106.351v0c-35.45 23.634-70.9 47.267-106.351 47.267-47.267 0-82.717-23.634-106.351-47.267v0c-23.634-23.634-35.45-59.084-35.45-106.351 0-35.45 11.816-70.9 35.45-94.534v0c23.634-35.45 59.084-47.267 106.351-47.267zM756.265 724.701v0 0 0 0 0c-11.816-11.816-35.45-11.816-47.267-11.816-23.634 0-35.45 0-47.267 11.816v0c-11.816 11.816-23.634 35.45-23.634 47.267 0 23.634 11.816 35.45 23.634 47.267v0c11.816 11.816 23.634 23.634 47.267 23.634 11.816 0 35.45-11.816 47.267-23.634v0c11.816-11.816 23.634-23.634 23.634-47.267 0-11.816-11.816-35.45-23.634-47.267z"></path>
</svg>
