<?xml version="1.0" encoding="utf-8"?>
<!-- Generated by IcoMoon.io -->
<!DOCTYPE svg PUBLIC "-//W3C//DTD SVG 1.1//EN" "http://www.w3.org/Graphics/SVG/1.1/DTD/svg11.dtd">
<svg version="1.1" xmlns="http://www.w3.org/2000/svg" xmlns:xlink="http://www.w3.org/1999/xlink" width="1024" height="1024" viewBox="0 0 1024 1024">
<g id="icomoon-ignore">
</g>
<path fill="#646360" d="M1018.343 198.011c5.658-56.575-11.315-107.492-50.917-147.094-28.287-33.944-73.547-50.917-118.807-50.917s-90.519 11.315-130.121 33.944c-16.973 11.315-22.63 33.944-11.315 50.917s33.944 22.63 50.917 11.315c56.575-33.944 118.807-33.944 152.751 5.658 22.63 22.63 28.287 50.917 28.287 84.862-5.658 39.602-22.63 73.547-50.917 101.834s-67.89 45.26-101.834 50.917c-33.944 5.658-62.232-5.658-84.862-28.287-11.315-11.315-33.944-22.63-50.917-22.63s-39.602 5.658-50.917 22.63c-11.315 11.315-22.63 33.944-22.63 50.917s5.658 39.602 22.63 50.917c11.315 11.315 33.944 22.63 50.917 22.63s39.602-5.658 50.917-22.63c5.658-5.658 5.658-5.658 5.658-11.315 22.63 5.658 39.602 11.315 62.232 11.315 5.658 0 16.973 0 22.63 0 0 0 0 0 0 0l5.658 96.177c0 22.63-5.658 45.26-22.63 56.575l-356.42 356.42c-22.63 22.63-50.917 22.63-73.547 0l-265.901-265.901c-11.315-11.315-16.973-22.63-16.973-33.944s5.658-28.287 16.973-33.944l356.42-356.42c16.973-16.973 33.944-22.63 56.575-22.63l316.818 22.63c22.63 0 39.602-16.973 39.602-33.944 0-22.63-16.973-39.602-33.944-39.602l-305.503-16.973c-45.26-5.658-84.862 11.315-118.807 45.26l-350.762 350.762c-28.287 22.63-39.602 56.575-39.602 90.519s11.315 67.89 39.602 90.519l265.901 265.901c22.63 22.63 56.575 39.602 90.519 39.602s62.232-11.315 90.519-39.602l356.42-356.42c28.287-28.287 45.26-73.547 45.26-118.807l-5.658-113.149c28.287-11.315 50.917-28.287 73.547-50.917 28.287-39.602 56.575-90.519 62.232-147.094z"></path>
</svg>
