<?xml version="1.0" encoding="utf-8"?>
<!-- Generated by IcoMoon.io -->
<!DOCTYPE svg PUBLIC "-//W3C//DTD SVG 1.1//EN" "http://www.w3.org/Graphics/SVG/1.1/DTD/svg11.dtd">
<svg version="1.1" xmlns="http://www.w3.org/2000/svg" xmlns:xlink="http://www.w3.org/1999/xlink" width="1024" height="1024" viewBox="0 0 1024 1024">
<g id="icomoon-ignore">
</g>
<path d="M780.289 460.784c-10.74-8.549-26.367-8.335-36.93 1.141-3.528 3.163-35.397 30.088-66.451 0.842-11.729-10.998-29.753-10.241-40.552 1.372-10.816 11.613-10.224 29.811 1.35 40.668 55.996 52.517 118.491 22.835 143.919 0 11.805-10.597 12.812-28.782 2.263-40.627-1.141-1.257-2.339-2.397-3.604-3.39zM385.29 505.131c11.805-10.607 12.803-28.795 2.241-40.627-1.114-1.257-2.321-2.397-3.596-3.39-10.749-8.558-26.367-8.343-36.93 1.141-3.538 3.154-35.406 30.078-66.451 0.842-11.738-10.989-29.753-10.241-40.56 1.372s-10.224 29.811 1.359 40.668c56.005 52.525 118.491 22.844 143.928 0zM522.13 623.792c-98.369 0-184.804 55.27-220.25 140.805-6.068 14.652 0.851 31.459 15.476 37.563 3.596 1.497 7.31 2.205 10.972 2.205 11.221 0 21.886-6.686 26.456-17.716 26.514-64.036 92.209-105.412 167.328-105.412 73.445 0 138.738 41.402 166.361 105.465 6.285 14.576 23.151 21.289 37.655 14.968 14.527-6.304 21.204-23.218 14.919-37.781-36.68-85.107-122.621-140.096-218.919-140.096zM870.266 152.758c-98.73-99.019-228.385-148.538-358.043-148.596h-0.441c-129.673 0.058-259.314 49.559-358.017 148.547-197.54 198.115-197.523 520.45 0.017 718.565 98.704 99.011 228.353 148.521 358.026 148.565h0.392c129.673-0.049 259.322-49.577 358.043-148.613 197.532-198.074 197.523-520.392 0.017-718.466zM814.979 815.83c-83.535 83.776-193.254 125.654-302.979 125.677-109.72 0-219.444-41.884-302.979-125.637-20.897-20.946-39.162-43.541-54.82-67.342-109.644-166.736-91.362-393.784 54.82-540.398 83.535-83.776 193.254-125.646 302.979-125.646s219.444 41.875 302.979 125.654c167.070 167.546 167.061 440.18 0 607.691z"></path>
</svg>
