<?xml version="1.0" encoding="utf-8"?>
<!-- Generated by IcoMoon.io -->
<!DOCTYPE svg PUBLIC "-//W3C//DTD SVG 1.1//EN" "http://www.w3.org/Graphics/SVG/1.1/DTD/svg11.dtd">
<svg version="1.1" xmlns="http://www.w3.org/2000/svg" xmlns:xlink="http://www.w3.org/1999/xlink" width="1024" height="1024" viewBox="0 0 1024 1024">
<g id="icomoon-ignore">
</g>
<path d="M999.649 248.063l-49.271-52.23c-16.272-17.182-35.958-25.717-59.171-25.717s-43.241 8.534-59.854 25.717l-318.954 338.413-319.638-338.413c-16.272-17.182-36.072-25.831-59.513-25.831s-43.241 8.534-59.513 25.717l-49.385 52.344c-16.158 17.182-24.351 38.12-24.351 63.040 0 24.807 8.079 45.857 24.351 63.040l428.080 454.138c16.272 17.069 36.185 25.717 59.627 25.717s43.241-8.648 59.513-25.831l428.080-454.138c16.272-17.182 24.351-38.233 24.351-63.040s-8.079-45.744-24.351-62.926z"></path>
</svg>
