<?xml version="1.0" encoding="utf-8"?>
<!-- Generated by IcoMoon.io -->
<!DOCTYPE svg PUBLIC "-//W3C//DTD SVG 1.1//EN" "http://www.w3.org/Graphics/SVG/1.1/DTD/svg11.dtd">
<svg version="1.1" xmlns="http://www.w3.org/2000/svg" xmlns:xlink="http://www.w3.org/1999/xlink" width="1024" height="1024" viewBox="0 0 1024 1024">
<g id="icomoon-ignore">
</g>
<path fill="#f9ea88" d="M781.474 583.044c-14.699-14.699-39.197-19.598-53.895-4.899s-19.598 44.096 0 58.794c48.995 53.895 73.493 127.388 73.493 205.78v83.292c0 9.799-4.899 14.699-14.699 14.699h-548.747c-9.799 0-14.699-4.899-14.699-14.699v-78.392c0-166.583 127.388-298.871 289.072-298.871 146.986 0 264.574-122.488 264.574-274.374s-117.589-274.374-264.574-274.374c-146.986 0-264.574 122.488-264.574 274.374 0 44.096 9.799 88.191 29.397 132.287 14.699 14.699 39.197 19.598 58.794 9.799s24.498-34.296 14.699-53.895c-14.699-29.397-19.598-58.794-19.598-93.091 0-107.789 83.292-191.081 181.282-191.081 102.89 0 181.282 88.191 181.282 191.081 0 107.789-83.292 191.081-181.282 191.081-200.881 0-367.464 171.484-367.464 382.163v83.292c0 53.895 44.096 97.991 93.091 97.991h548.747c53.895 0 93.091-44.096 93.091-97.991v-78.392c0-97.991-34.296-191.081-97.991-264.574z"></path>
</svg>
