<?xml version="1.0" encoding="utf-8"?>
<!-- Generated by IcoMoon.io -->
<!DOCTYPE svg PUBLIC "-//W3C//DTD SVG 1.1//EN" "http://www.w3.org/Graphics/SVG/1.1/DTD/svg11.dtd">
<svg version="1.1" xmlns="http://www.w3.org/2000/svg" xmlns:xlink="http://www.w3.org/1999/xlink" width="1024" height="1024" viewBox="0 0 1024 1024">
<g id="icomoon-ignore">
</g>
<path fill="#FFFFFF" d="M1012.364 488.727c-153.6-200.145-321.164-302.545-498.036-302.545-69.818 0-139.636 13.964-209.455 46.545-51.2 27.927-107.055 60.509-158.255 107.055-88.436 74.473-139.636 148.945-139.636 148.945-9.309 13.964-9.309 32.582 0 46.545 153.6 200.145 321.164 302.545 498.036 302.545 69.818 0 139.636-13.964 209.455-46.545 55.855-23.273 107.055-60.509 162.909-102.4 88.436-74.473 139.636-148.945 139.636-148.945 9.309-18.618 9.309-37.236-4.655-51.2zM821.528 623.709c-74.473 60.509-186.182 134.982-321.164 134.982-144.291 0-283.927-83.782-418.909-246.691 23.273-27.927 60.509-69.818 111.709-111.709 74.473-60.509 186.182-134.982 321.164-134.982 144.291 0 283.927 83.782 418.909 246.691-18.618 27.927-55.855 69.818-111.709 111.709zM649.309 474.764c-18.618 0-37.236 18.618-37.236 37.236 0 60.509-46.545 107.055-102.4 107.055s-102.4-46.545-102.4-107.055c0-60.509 46.545-107.055 102.4-107.055 18.618 0 37.236-18.618 37.236-37.236 0-23.273-18.618-41.891-37.236-41.891-97.745 0-176.873 83.782-176.873 186.182s79.127 186.182 176.873 186.182c97.745 0 176.873-83.782 176.873-186.182 0-23.273-18.618-37.236-37.236-37.236z"></path>
</svg>
