<?xml version="1.0" encoding="utf-8"?>
<!-- Generator: Adobe Illustrator 19.2.1, SVG Export Plug-In . SVG Version: 6.00 Build 0)  -->
<svg version="1.1" id="Слой_1" xmlns="http://www.w3.org/2000/svg" xmlns:xlink="http://www.w3.org/1999/xlink" x="0px" y="0px"
	 viewBox="0 0 76 76" style="enable-background:new 0 0 76 76;" xml:space="preserve">
<style type="text/css">
	.st0{fill:none;stroke:#27AE60;stroke-width:3;}
	.st1{fill:#27AE60;}
</style>
<circle class="st0" cx="38" cy="38" r="36.5"/>
<path class="st1" d="M63,40.3c0-0.4-0.3-0.7-0.7-0.7c-0.4,0-0.7,0.2-0.8,0.6c-1.1,6.4-7.2,5.3-8.6,3.6c-0.8-1.1-0.7-2.2-0.3-2.8
	c0.7-1.1,2-1,2.5-0.4c0.5,0.7,0.3,1.9,0.2,2.3c-0.1,0.3,0,0.6,0.3,0.7c0.2,0.2,0.5,0.2,0.8,0.1c2.9-1.4,3.8-5.9,1.1-7.9
	c-1.4-1-2.8-1.1-3.8-0.9c0.8-3.5-0.9-6.3-1-6.5c-0.2-0.4-0.7-0.5-1-0.2c-2.4,1.6-3,4.4-3.1,6c-3.3-1.3-5.3,1.2-5.3,3.6
	c0,2.8,2,3.5,2.1,3.5c0.2,0.1,0.5,0,0.7-0.1c0.2-0.2,0.3-0.4,0.3-0.7c0-0.4,0-1.1,0.3-1.4c0.2-0.2,0.4-0.3,0.8-0.3
	c2,0,2.1,4.5-2.9,4.5c-2.5,0-3.5-1.9-4-3.2l1.4,0.7c0.5,0.2,1.1-0.1,1.1-0.7v-5c0-0.5-0.5-0.9-1-0.7l-1.6,0.6
	c0.3-1.2,0.9-2.8,1.2-3.5c0.2-0.5-0.2-1-0.7-1H40v-3.8c1.1-0.7,1.9-2.1,2-3.7c0-0.4-0.3-0.7-0.7-0.8c-0.4,0-0.7,0.3-0.8,0.7
	c-0.1,1.9-1.7,3.5-3.4,2.7c-2.1-1-2.1-4.8,0-5.9c0.4-0.2,0.7-0.2,1.1-0.2c0,0,0,0,0,0c0.7,0.1,1.4,0.6,1.8,1.2
	c0.2,0.3,0.7,0.4,1,0.2c0.3-0.2,0.4-0.7,0.2-1c-0.3-0.5-0.8-1-1.3-1.3v-2.2h0.5c1.1,0,2-0.9,2-2s-0.9-2-2-2H40v-1.3c0-1.1-0.9-2-2-2
	c-1.1,0-2,0.9-2,2V13h-0.5c-1.1,0-2,0.9-2,2s0.9,2,2,2h0.5v2.2c-1.2,0.8-2,2.3-2,4s0.8,3.2,2,4v3.7c-0.9,0-1.3-0.1-1.5,0.3
	c-0.1,0.2-0.2,0.5-0.1,0.7c0.3,0.7,0.9,2.3,1.2,3.5L34,34.8c-0.5-0.2-1,0.2-1,0.7v5c0,0.5,0.6,0.9,1.1,0.7l1.4-0.7
	c-0.6,2-1.9,3.2-3.9,3.2c-5.1,0-5-4.5-2.9-4.5c0.3,0,0.6,0.1,0.8,0.3c0.3,0.4,0.4,1,0.3,1.4c-0.1,0.5,0.5,1,1,0.8
	c0.1,0,2.1-0.8,2.1-3.5c0-2.4-2-4.9-5.3-3.6c0-0.3-0.1-0.8-0.2-1.2c-0.1-0.4-0.5-0.7-0.9-0.6c-0.4,0.1-0.7,0.5-0.6,0.9
	c0.4,1.9-0.1,2.4,0.5,2.7c0.2,0.1,0.5,0.1,0.8,0c3.1-1.9,4.1,0.6,4.1,1.8c0,0.6-0.1,1-0.3,1.3c-0.1-0.4-0.3-0.7-0.5-1
	c-0.5-0.5-1.1-0.8-1.9-0.8c-1.9,0-2.8,1.8-2.8,2.9c0,0.2,0.1,4.5,5.7,4.5c2.2,0,3.9-1,4.9-3c0.7-1.4,0.8-2.8,0.8-2.9
	c0-0.3-0.1-0.5-0.3-0.7c-0.2-0.1-0.5-0.2-0.7,0l-1.7,0.8v-2.8l1.8,0.7c0.2,0.1,0.5,0.1,0.7-0.1c0.2-0.1,0.3-0.4,0.3-0.6
	c0-1.1-0.6-3-1-4.1c1.3,0,2.4,0,3.6,0c-0.4,1.2-1,3-1,4.1c0,0.5,0.5,0.9,1,0.7l1.8-0.7v2.8l-1.7-0.8c-0.5-0.3-1.1,0.1-1.1,0.7
	c0,0.1,0.1,1.5,0.8,2.9c1,2,2.7,3,4.9,3c5.6,0,5.7-4.3,5.7-4.5c0-1.2-0.9-2.9-2.8-2.9c-1.1,0-2,0.6-2.4,1.8
	c-0.9-1.8,0.3-5.3,3.8-3.1c0.5,0.3,1.1-0.1,1.1-0.7c0,0-0.1-3.5,1.9-5.4c0.5,1.1,1.1,3.4,0,5.8c-0.1,0.3-0.1,0.6,0.2,0.8
	c0.2,0.2,0.6,0.3,0.8,0.1c2-1.1,5-0.1,4.7,2.7c-0.1,0.7-0.3,1.4-0.7,1.9C56.8,40,56,39,54.6,38.7c-3-0.5-5,3.2-2.8,6
	c1.7,2.2,7,3.1,9.7-0.5v2.1c-0.8,1.2-2.3,1.5-3.1,1.2l0,0c-0.4-0.1-0.8,0.1-0.9,0.5c-0.1,0.4,0.1,0.8,0.5,0.9c1.2,0.3,2,1.4,2.1,2.6
	l-1.6,3.3c-2.5-0.9-5.9-1.7-9.8-2.2c-0.4,0-0.8,0.2-0.8,0.6c0,0.4,0.2,0.8,0.6,0.8c3.8,0.5,7.1,1.2,9.5,2.1l-0.5,2
	c-12.6-2.9-25.3-3.1-39.1,0l-0.5-2c7.2-2.6,19.3-3.1,28.1-2.4c0.4,0,0.8-0.3,0.8-0.7c0-0.4-0.3-0.8-0.7-0.8
	C37.4,51.6,25,52,17.4,54.8l-1.6-3.3c0.1-1.2,0.9-2.3,2.1-2.6c0.4-0.1,0.6-0.5,0.5-0.9c-0.1-0.4-0.5-0.6-0.9-0.5c0,0,0,0,0,0
	c-1.2,0.3-2.5-0.2-3.1-1.2v-2.1c2.7,3.7,8,2.8,9.7,0.5c1.1-1.4,1.2-3.1,0.4-4.4c-0.7-1.1-1.9-1.7-3.2-1.5c-1.4,0.2-2.2,1.3-2.3,2.8
	c-1-1.3-1.1-3.4,0.2-4.4c1.7-1.3,3.7-0.3,3.8-0.2c0.3,0.2,0.6,0.1,0.8-0.1c0.2-0.2,0.3-0.5,0.2-0.8c-1-2.4-0.4-4.6,0-5.8
	c0.4,0.4,0.7,0.8,0.9,1.3c0.2,0.4,0.6,0.5,1,0.3c0.4-0.2,0.5-0.6,0.3-1c-0.5-1-1.2-1.8-2.1-2.3c-0.3-0.2-0.8-0.1-1,0.2
	c-0.1,0.1-1.8,3-1,6.5c-1-0.2-2.5-0.2-3.8,0.9c-1.1,0.8-1.7,2.2-1.5,3.8c0.2,1.7,1.2,3.4,2.7,4.1c0.5,0.3,1.2-0.2,1-0.8
	c-0.1-0.4-0.2-1.7,0.2-2.3c0.2-0.3,0.4-0.4,0.8-0.5c1.7-0.3,2.7,1.9,1.4,3.6c-1.4,1.8-7.5,2.9-8.6-3.6c-0.1-0.4-0.4-0.6-0.8-0.6
	c-0.4,0-0.7,0.3-0.7,0.7c0,9.1,0,8.6,0.1,8.8l3.3,6.9l0.9,3.2c0.1,0.4,0.5,0.6,0.9,0.5c0.1,0,9.6-2.4,19.9-2.4
	c10.3,0,19.8,2.4,19.9,2.4c0.4,0.1,0.8-0.1,0.9-0.5C60,55,59.2,57.1,63,49.1C63.1,48.9,63,49.5,63,40.3z M35.6,15.4
	c-0.3,0-0.5-0.2-0.5-0.5s0.2-0.5,0.5-0.5h1.2c0.4,0,0.7-0.3,0.7-0.7v-2c0-0.3,0.2-0.5,0.5-0.5c0.3,0,0.5,0.2,0.5,0.5v2
	c0,0.4,0.3,0.7,0.7,0.7h1.2c0.3,0,0.5,0.2,0.5,0.5s-0.2,0.5-0.5,0.5h-1.2c-0.4,0-0.7,0.3-0.7,0.7v2.4c-0.3,0-0.6,0-1,0v-2.4
	c0-0.4-0.3-0.7-0.7-0.7L35.6,15.4L35.6,15.4z M38.6,30.9h-1v-3.2c0.4,0,0.7,0,1,0V30.9z M14.9,49.5l-0.4-0.9v-0.3
	c0.3,0.2,0.6,0.4,1,0.5C15.3,49,15.1,49.3,14.9,49.5z M61.6,48.6l-0.4,0.9c-0.1-0.3-0.3-0.5-0.5-0.7c0.3-0.1,0.7-0.3,1-0.5
	L61.6,48.6L61.6,48.6z"/>
</svg>
