<svg width="70" height="74" viewBox="0 0 70 74" fill="none" xmlns="http://www.w3.org/2000/svg">
<path d="M19.3372 29.9132C19.5284 29.2594 19.1535 28.575 18.4998 28.3826C17.8474 28.1889 17.1616 28.5663 16.9692 29.2188C16.0529 32.3478 13.131 34.5332 9.86652 34.5332C5.78541 34.5332 2.46656 31.2144 2.46656 27.1333C2.46656 23.6194 4.96275 20.5696 8.40127 19.88C8.81073 19.7973 9.14864 19.5162 9.30401 19.1302C9.45938 18.7441 9.41009 18.3064 9.17075 17.9647C8.01263 16.3022 7.39967 14.3548 7.39967 12.3334C7.39967 6.89309 11.8261 2.4667 17.2663 2.4667C20.5606 2.4667 23.6241 4.1009 25.4643 6.83889C25.8429 7.40256 26.6088 7.55417 27.1749 7.17434C27.7397 6.79452 27.8902 6.02865 27.5117 5.46368C25.2128 2.04236 21.3833 -8.38036e-08 17.2665 -8.38036e-08C10.4659 -8.38036e-08 4.93326 5.53277 4.93326 12.3332C4.93326 14.2991 5.39691 16.2095 6.28506 17.9387C2.56036 19.3915 1.14679e-07 23.0248 1.14679e-07 27.1331C1.14679e-07 32.5734 4.42639 36.9998 9.86667 36.9998C14.2188 36.9998 18.1149 34.0855 19.3372 29.9132Z" transform="translate(0 4.93262)" fill="#FFF"/>
<path d="M21.9974 0.0164206C21.3252 0.12742 20.8714 0.763785 20.9837 1.4347C20.9948 1.50869 22.1997 8.84332 22.1997 17.2657C22.1997 22.0819 20.5903 24.2771 19.4125 25.2378C18.3567 22.3062 14.9059 20.9655 12.3332 20.9655C10.1046 20.9655 7.99803 21.9991 6.60317 23.7233C6.07288 23.5309 5.50921 23.4322 4.93326 23.4322C2.21247 23.4322 -4.85179e-08 25.6448 -4.85179e-08 28.3655C-4.85179e-08 29.0462 0.55124 29.5987 1.23328 29.5987C1.91532 29.5987 2.46656 29.0462 2.46656 28.3655C2.46656 27.0052 3.57279 25.8988 4.93326 25.8988C5.429 25.8988 5.90754 26.0455 6.31584 26.323C6.59955 26.5153 6.95221 26.5833 7.28405 26.5055C7.61951 26.4291 7.90683 26.2169 8.07825 25.9209C8.97607 24.362 10.5671 23.4321 12.3332 23.4321C13.8785 23.4321 17.2665 24.3633 17.2665 27.1321C17.2665 27.5119 17.4417 27.8707 17.7413 28.1039C18.041 28.3382 18.4307 28.4197 18.7982 28.3283C19.0374 28.2679 24.6664 26.7521 24.6664 17.2654C24.6664 8.62971 23.4664 1.33569 23.4158 1.02871C23.3047 0.35809 22.6695 -0.093278 21.9974 0.0164206Z" transform="translate(4.93307 44.4004)" fill="#FFF"/>
<path d="M1.9427 5.16017C4.44886 3.39776 7.38659 2.46656 10.4379 2.46656C13.4892 2.46656 16.427 3.39776 18.9331 5.16017C19.1478 5.31192 19.3969 5.38462 19.641 5.38462C20.0284 5.38462 20.4107 5.20208 20.6512 4.86041C21.0434 4.30296 20.909 3.53333 20.3514 3.14238C17.4284 1.08658 13.9997 0 10.4379 0C6.87611 0 3.44741 1.08658 0.524424 3.14252C-0.0330305 3.53348 -0.167442 4.3031 0.224669 4.86056C0.618226 5.41671 1.38525 5.55242 1.9427 5.16017Z" transform="translate(24.0954)" fill="#FFF"/>
<path d="M14.9439 0.615031C13.2419 3.92275 9.88117 5.97624 6.17367 5.97624C4.63196 5.97624 3.15573 5.6272 1.78543 4.94025C1.17739 4.63558 0.436238 4.88099 0.131568 5.49033C-0.174259 6.09967 0.0711557 6.83966 0.680352 7.14549C2.39709 8.00631 4.24346 8.44294 6.17367 8.44294C10.1092 8.44294 13.7339 6.59049 16.0403 3.50101C18.3466 6.59049 21.9714 8.44294 25.907 8.44294C27.8334 8.44294 29.6797 8.00761 31.3928 7.14925C32.0008 6.84458 32.2487 6.10343 31.9429 5.49539C31.6371 4.88619 30.9007 4.63702 30.2877 4.94415C28.92 5.62864 27.4461 5.97639 25.907 5.97639C22.1996 5.97639 18.8387 3.9229 17.1367 0.615176C16.715 -0.205034 15.3657 -0.205035 14.9439 0.615031Z" transform="translate(18.4929 34.5859)" fill="#FFF"/>
<path d="M21.4691 17.9387C22.3571 16.2095 22.8209 14.2991 22.8209 12.3332C22.8209 5.53262 17.2881 -1.63197e-07 10.4876 -1.63197e-07C6.34611 -1.63197e-07 2.50189 2.06216 0.2066 5.51672C-0.170769 6.08401 -0.016702 6.85002 0.550725 7.22608C1.12046 7.6023 1.88518 7.44938 2.26139 6.88196C4.09779 4.1168 7.17254 2.4667 10.4876 2.4667C15.9279 2.4667 20.3543 6.89309 20.3543 12.3334C20.3543 14.3548 19.7413 16.3022 18.5821 17.9647C18.344 18.3064 18.2947 18.7441 18.4501 19.1302C18.6055 19.5162 18.9434 19.7975 19.3528 19.88C22.7914 20.5694 25.2876 23.6194 25.2876 27.1333C25.2876 31.2144 21.9687 34.5332 17.8876 34.5332C14.6069 34.5332 11.7604 32.4267 10.807 29.2904C10.6085 28.6391 9.92151 28.2691 9.2678 28.4702C8.61539 28.6674 8.249 29.3569 8.44643 30.0081C9.71917 34.1904 13.5129 36.9998 17.8876 36.9998C23.3279 36.9998 27.7543 32.5734 27.7543 27.1331C27.7541 23.0248 25.1938 19.3915 21.4691 17.9387Z" transform="translate(41.3122 4.93262)" fill="#FFF"/>
<path d="M1.23328 -6.35143e-07C0.551239 -6.35143e-07 -6.88073e-07 0.552537 -6.88073e-07 1.23328V28.3665C-6.88073e-07 29.0473 0.551239 29.5998 1.23328 29.5998C1.91532 29.5998 2.46656 29.0473 2.46656 28.3665V1.23342C2.46656 0.552538 1.91532 -6.35143e-07 1.23328 -6.35143e-07Z" transform="translate(33.2997 41.9326)" fill="#FFF"/>
<path d="M19.733 23.4327C19.1571 23.4327 18.5934 23.5314 18.0618 23.7238C16.6681 21.9995 14.5616 20.966 12.3331 20.966C9.75914 20.966 6.30457 22.3078 5.25137 25.2444C4.07475 24.2886 2.46656 22.0981 2.46656 17.266C2.46656 8.84364 3.67151 1.50901 3.68264 1.43501C3.79479 0.764104 3.34097 0.127739 2.6689 0.0167394C1.99554 -0.0942599 1.36162 0.358411 1.25062 1.02932C1.20004 1.33645 1.41143e-06 8.63031 1.41143e-06 17.266C1.41143e-06 26.7527 5.62773 28.2685 5.86823 28.3289C6.23693 28.4214 6.62672 28.3401 6.92518 28.1045C7.22494 27.8714 7.39996 27.5125 7.39996 27.1327C7.39996 24.3639 10.7879 23.4327 12.3332 23.4327C14.0994 23.4327 15.6904 24.3626 16.5882 25.9215C16.7596 26.2175 17.0469 26.4297 17.3824 26.5061C17.7154 26.5839 18.0669 26.5159 18.3506 26.3236C18.7589 26.0461 19.2373 25.8994 19.7332 25.8994C21.0935 25.8994 22.1999 27.0056 22.1999 28.3661C22.1999 29.0468 22.7511 29.5994 23.4332 29.5994C24.1152 29.5994 24.6664 29.0468 24.6664 28.3661C24.6663 25.6453 22.4537 23.4327 19.733 23.4327Z" transform="translate(39.4666 44.4004)" fill="#FFF"/>
</svg>
