<?xml version="1.0" encoding="utf-8"?>
<!-- Generator: Adobe Illustrator 19.2.1, SVG Export Plug-In . SVG Version: 6.00 Build 0)  -->
<svg version="1.1" id="Слой_1" xmlns="http://www.w3.org/2000/svg" xmlns:xlink="http://www.w3.org/1999/xlink" x="0px" y="0px"
	 viewBox="0 0 76 76" style="enable-background:new 0 0 76 76;" xml:space="preserve">
<style type="text/css">
	.st0{fill:none;stroke:#F9D023;stroke-width:3;}
	.st1{fill:#F9D023;}
</style>
<circle class="st0" cx="38" cy="38" r="36.5"/>
<path class="st1" d="M60.6,48.8c-0.1-0.5-0.4-0.9-0.8-1.1l-1.3-0.6c0,0,0-0.1,0-0.1c0-0.5-0.3-0.9-0.7-1.1c-4.1-1.5-6.5-2.7-8-3.6
	c0.2-1.1,1-1.9,2-2.3l0.1,0c1.2-0.4,2.1-1.4,2.5-2.6c0.4-1.2,0.3-2.5-0.4-3.6l-0.6-1l-7.1-11.4c-0.1-0.2-0.4-0.3-0.6-0.1
	c-0.1,0.1-0.2,0.2-0.2,0.4l0.1,1.4l-8.7-9.8c-0.1-0.1-0.3-0.2-0.4-0.1c-0.2,0-0.4,0.2-0.3,0.5c0,0.1,0.2,1.8,1.4,4.3
	c-1-1.1-2.1-2.3-2.9-3.4c-0.1-0.2-0.3-0.2-0.5-0.1c-0.2,0.1-0.3,0.3-0.2,0.5c0.2,0.9,0.7,3,2.1,5.3c-1.1-1.1-2.4-2.4-3.4-3.8
	c-0.1-0.2-0.3-0.2-0.5-0.1c-0.2,0.1-0.3,0.3-0.2,0.5c0.4,1.3,1.4,3.5,3.1,5.8c-1.1-0.8-2.3-1.9-3.4-3c-0.1-0.1-0.4-0.2-0.5,0
	c-0.2,0.1-0.2,0.3-0.1,0.5c0.4,0.8,1.5,3.1,3.7,5.5c0.1,0.1,0.2,0.2,0.3,0.4c-1.2-0.7-2.6-1.6-3.7-2.5c-0.2-0.1-0.4-0.1-0.5,0
	c-0.2,0.1-0.2,0.4-0.1,0.5c0.4,0.7,1.1,1.6,1.9,2.4l-1.9-0.9c-0.2-0.1-0.4,0-0.5,0.2c-0.1,0.1-0.1,0.3,0,0.5l0.8,1.1l-12.6-3.4
	c-0.2,0-0.4,0-0.5,0.2c-0.1,0.2-0.1,0.4,0,0.5c0.1,0.1,1.2,1.5,3.5,2.9c-1.4-0.3-3-0.8-4.2-1.2c-0.2-0.1-0.4,0-0.5,0.2
	c-0.1,0.2-0.1,0.4,0.1,0.5c0.6,0.7,2.2,2.1,4.7,3.3c-1.5-0.3-3.3-0.7-4.9-1.3c-0.2-0.1-0.4,0-0.5,0.2c-0.1,0.2-0.1,0.4,0.1,0.5
	c1,0.9,3,2.1,5.7,3.1c-1.3-0.1-2.9-0.3-4.5-0.6c-0.2,0-0.4,0.1-0.5,0.3c-0.1,0.2,0,0.4,0.2,0.5c0.8,0.5,2.9,1.7,6,2.5
	c0.2,0,0.3,0.1,0.5,0.1c-1.4,0.1-3.1,0.1-4.4-0.1c-0.2,0-0.4,0.1-0.5,0.3c-0.1,0.2,0,0.4,0.2,0.5c1.3,0.6,3.4,1.2,5.9,1.5
	c-0.9,0.2-2,0.3-3.4,0.3c-0.2,0-0.4,0.2-0.4,0.4c0,0.2,0.1,0.4,0.3,0.5c1.6,0.4,3.4,0.6,5.2,0.6c-0.9,0.3-1.8,0.6-2.4,0.7
	c-0.2,0-0.4,0.2-0.4,0.4c0,0.2,0.1,0.4,0.3,0.4c0.7,0.1,1.4,0.2,2.2,0.2c1.2,0,2.5-0.1,3.9-0.4c-0.1,0.3-0.1,0.6,0.1,0.9
	c0.2,0.4,0.6,0.5,1.1,0.5l0.4-0.1c-0.1,0.3-0.1,0.7,0.1,1c0.2,0.4,0.7,0.6,1.1,0.5l0.3-0.1c-0.1,0.3,0,0.6,0.1,0.8
	c0.3,0.4,0.7,0.6,1.2,0.4l0.2-0.1c0,0,0,0.1,0,0.1l-18.8,7.6c-0.1,0-0.2,0.1-0.2,0.3c0,0.1,0,0.2,0,0.4c0.1,0.2,3.1,5.1,8,5.7
	c0,0,0,0,0.1,0c0.1,0,0.2,0,0.3-0.1c2-1.8,5.4-4.2,8.6-6.4c1.8,0.4,3.6,0.6,5.2,0.6l-0.3,5.4c0,0.2,0.1,0.3,0.3,0.4
	c0.1,0,0.1,0,0.2,0c0.1,0,0.2,0,0.3-0.1l1.1-1.2l1.8,0.8c0,0,0,0,0,0l2.8,1.1l-0.4,2c0,0.1,0,0.2,0,0.2c0.1,0.2,0.2,0.3,0.4,0.3h1.5
	c0.2,0,0.4-0.2,0.4-0.4c0-0.3-0.2-0.5-0.4-0.5h-1l0.3-1.5h1.3l0.7,1c0.1,0.2,0.4,0.2,0.6,0.1c0.2-0.1,0.3-0.4,0.1-0.6l-0.9-1.2
	c-0.1-0.1-0.2-0.2-0.3-0.2h-1.1l0.1-0.2l1.2-0.7l1.2,1.5c0.1,0.1,0.2,0.2,0.3,0.2c0.1,0,0.2,0,0.3-0.1c0.2-0.1,0.2-0.4,0-0.6
	L46.6,57c-0.1-0.2-0.4-0.2-0.5-0.1l-1.5,0.8l-2.8-1.3l1.7-0.2c0.2,0,0.4-0.2,0.4-0.4c0-0.1-0.1-0.3-0.2-0.3c-1-0.6-1.7-1.6-2-2.7
	c0.9-0.1,1.8-0.3,2.6-0.5L44.2,55c0,0.2,0.1,0.3,0.2,0.4c0.1,0,0.1,0.1,0.2,0.1c0.1,0,0.2,0,0.3-0.1l1.1-1.2l1.8,0.8c0,0,0,0,0,0
	l0,0l2.8,1.1l-0.4,2c0,0.1,0,0.2,0,0.2c0.1,0.2,0.2,0.3,0.4,0.3h1.5c0.2,0,0.4-0.2,0.4-0.4c0-0.3-0.2-0.5-0.4-0.5h-1l0.3-1.5h1.3
	l0.7,1c0.1,0.2,0.4,0.2,0.6,0.1c0.2-0.1,0.3-0.4,0.1-0.6l-0.9-1.2c-0.1-0.1-0.2-0.2-0.3-0.2h-1.1l0.1-0.2l1.2-0.7l1.2,1.5
	c0.1,0.1,0.2,0.2,0.3,0.2c0.1,0,0.2,0,0.3-0.1c0.2-0.1,0.2-0.4,0-0.6l-1.4-1.7c-0.1-0.2-0.4-0.2-0.5-0.1l-1.5,0.8l-2.8-1.3l1.7-0.2
	c0.2,0,0.4-0.2,0.4-0.4c0-0.1-0.1-0.3-0.2-0.3c-0.7-0.4-1.2-1-1.6-1.7c0.5-0.1,1.2-0.2,2-0.3c1.5-0.2,3,0.2,4.2,1.1
	c0.6,0.4,1.2,0.7,1.8,0.9c0,0,0.1,0,0.1,0c0.2,0,0.3-0.1,0.4-0.3c0.1-0.2,0-0.4-0.1-0.5l-1.8-1.8l1.8,0.2c0.4,0,0.6,0.3,0.7,0.7
	c0,0.1,0,0.2,0,0.3c-0.1,0.2,0,0.4,0.2,0.5c0.2,0.1,0.3,0,0.5-0.1l1.3-1.2C60.6,49.8,60.7,49.3,60.6,48.8z M53.7,35.5
	c0.1,0.5,0,1.1-0.1,1.6c-0.3,1-1.1,1.7-2,2.1l-0.1,0c-1.2,0.4-2.1,1.4-2.4,2.6c-0.5-0.3-0.8-0.6-1-0.8c0.1-0.5,0.2-1,0.4-1.4
	c0.5-1,1.4-1.3,2.4-1.6c0.6-0.2,1.3-0.4,1.8-0.8C53.2,36.8,53.5,36.1,53.7,35.5z M32.7,21.8c2.2,1.9,4.3,3.4,4.6,3.5
	c1.2,1.3,2.8,2.6,4.6,3.6c0.1,0,0.1,0.1,0.2,0.1c0.1,0,0.3-0.1,0.4-0.2c0.1-0.2,0-0.5-0.2-0.6c-4.1-2.3-7-6.2-8.5-9.1
	c2,2.2,4.1,3.8,4.5,4.1c1.1,1.2,2.4,2.4,4,3.4c0.1,0,0.1,0.1,0.2,0.1c0.1,0,0.3-0.1,0.4-0.2c0.1-0.2,0.1-0.5-0.1-0.6
	c-2.4-1.6-4.4-3.6-5.9-6.1c-0.7-1.2-1.2-2.3-1.5-3.2c1.8,2.1,3.9,4.2,4.2,4.4c0.9,1.3,2,2.5,3.2,3.6c0.2,0.2,0.5,0.1,0.6-0.1
	c0.1-0.2,0.1-0.4-0.1-0.5c-1.2-1.1-2.2-2.3-3.1-3.5c-1.4-2-2.2-3.8-2.6-5c-0.1-0.2-0.1-0.4-0.2-0.6l8.4,9.5c0.1,0.2,0.4,0.2,0.6,0.1
	c0.1-0.1,0.2-0.2,0.2-0.4l0-1L53,33.9c0,0.4,0.1,1.9-0.9,2.6c-0.4,0.3-1,0.5-1.6,0.7c-1,0.3-2.2,0.7-2.9,2c-0.2,0.4-0.4,0.8-0.5,1.3
	c-0.1,0-0.3,0.2-0.3,0.3c-0.2,0.7-0.3,1.3-0.4,2c-1-0.4-1.7-1.3-1.9-2.4c-0.1-0.9,0.1-1.7,0.6-2.4c0.7-1,1-2.2,0.8-3.3
	c-0.2-1.4-1.1-2.5-2.3-3.1L42.4,31c0.1,0,0.3-0.1,0.3-0.3c0.1-0.2,0-0.5-0.2-0.5C37.9,28.3,34.6,24.9,32.7,21.8z M44.4,33.1
	c0.4,0.4,0.6,0.9,0.8,1.4c0.2,1,0,2-0.6,2.8l-0.1,0.1c-0.8,1.1-1,2.5-0.6,3.7c0.4,1.1,1.3,2,2.4,2.4c0,0.1,0,0.2,0,0.3
	c-2.6-0.3-4-2.7-4.2-4.4c-0.1-1.1,0.5-1.9,1.1-2.7c0.4-0.5,0.8-1,1.1-1.7C44.6,34.4,44.6,33.7,44.4,33.1z M33,25.8
	c1.9,1.2,3.9,2.2,4.2,2.3c0.7,0.6,1.5,1.1,2.2,1.5l-4.8-2.2C34.1,26.9,33.5,26.3,33,25.8z M34,43.9c-0.1,0-0.2,0-0.2-0.1
	c0,0-0.1-0.1,0-0.2l0.3-0.4c0.1-0.1,0.1-0.3,0-0.5c-0.1-0.2-0.3-0.2-0.4-0.2l-1.3,0.2c-0.1,0-0.2-0.1-0.2-0.1c0,0-0.1-0.1,0-0.2
	l0.5-0.6c0.1-0.1,0.1-0.3,0-0.5c-0.1-0.2-0.3-0.2-0.4-0.2l-1.4,0.3c-0.1,0-0.2-0.1-0.2-0.1c0,0-0.1-0.1,0-0.2l0.3-0.5
	c0.2-0.1,0.5-0.1,0.7-0.2c2.3-0.6,3.9-1.3,4-1.3c0.2-0.1,0.3-0.3,0.2-0.6c-0.1-0.2-0.3-0.3-0.5-0.2c-0.1,0-4.5,2-8.9,2.1
	c1.1-0.4,2.1-0.8,2.3-0.9c1.9-0.2,3.7-0.6,5.2-1.4c0.2-0.1,0.3-0.4,0.2-0.6s-0.4-0.3-0.6-0.2c-1.9,1-5.3,1.7-9.2,1.3
	c1.5-0.3,2.4-0.6,2.7-0.7c0,0,0.1,0,0.1,0c2,0,4.2-0.3,6.2-0.9c0.2-0.1,0.3-0.3,0.3-0.5c-0.1-0.2-0.3-0.3-0.5-0.3
	c-3.9,1.2-8.3,1-11.4,0.2c2.3,0,4.5-0.3,4.8-0.4c0.6,0,1.1,0.1,1.7,0.1c1.4,0,2.7-0.1,4-0.4c0.2,0,0.4-0.3,0.3-0.5
	c0-0.2-0.3-0.4-0.5-0.3c-4.8,1-9.5-0.1-12.8-1.6c2.9,0.4,5.4,0.4,5.7,0.4c1.3,0.3,2.8,0.5,4.4,0.5c0.5,0,0.9,0,1.4-0.1
	c0.2,0,0.4-0.2,0.4-0.5c0-0.2-0.2-0.4-0.4-0.4c-4.7,0.4-9.2-1.3-12.1-2.9c2.9,0.7,5.5,0.9,6,1c1.5,0.4,3.1,0.6,5,0.6
	c0.1,0,0.1,0,0.2,0c0.2,0,0.4-0.2,0.4-0.4c0-0.2-0.2-0.4-0.4-0.4c0,0,0,0,0,0c-2.9,0-5.7-0.6-8.3-1.9c-1.2-0.6-2.3-1.3-3-1.9
	c2.6,0.7,5.4,1.3,5.9,1.4c1.3,0.5,2.9,1,4.6,1.3c0.2,0,0.4-0.1,0.5-0.3c0-0.2-0.1-0.4-0.3-0.5c-3.9-0.7-6.6-2.1-8.2-3.2
	c-0.6-0.4-1.1-0.8-1.5-1.1l12.2,3.3c0.2,0.1,0.4,0,0.5-0.2c0.1-0.1,0-0.3-0.1-0.4l-0.6-0.8l10.9,5.1c0.4,0.2,0.7,0.4,0.8,0.8
	c0.3,0.5,0.6,1.4,0.3,2.1c-0.2,0.5-0.6,1-0.9,1.4c-0.7,0.9-1.5,1.8-1.3,3.3c0.1,1.2,0.7,2.4,1.5,3.4c0.4,0.5,1.1,1,1.9,1.4l-2.8,3.2
	c-0.1,0.1-0.2,0.1-0.2,0.1c0,0-0.1-0.1-0.1-0.2c0-0.1-0.1-0.3-0.2-0.3c-0.1-0.1-0.3-0.1-0.4,0l-0.6,0.4c-0.1,0.1-0.2,0-0.2,0
	c0,0-0.1-0.1-0.1-0.2l0-0.1c0-0.1,0-0.3-0.1-0.4c-0.1-0.1-0.3-0.1-0.4-0.1L38.6,47c-0.1,0-0.2,0-0.2-0.1c0,0-0.1-0.1,0-0.2l0.2-0.4
	c0.1-0.2,0-0.3-0.1-0.5c-0.1-0.1-0.3-0.2-0.5-0.1l-0.8,0.4c-0.1,0.1-0.2,0-0.2,0c0,0-0.1-0.1,0-0.2l0.2-0.4c0.1-0.2,0.1-0.3-0.1-0.5
	c-0.1-0.1-0.3-0.2-0.4-0.1l-1.1,0.4c-0.1,0-0.2,0-0.2-0.1c0,0-0.1-0.1,0-0.2l0.4-0.7c0.1-0.1,0.1-0.3,0-0.5
	c-0.1-0.1-0.3-0.2-0.4-0.2L34,43.9z M36.5,46.8l-7.3,4c-0.2-0.3-0.4-0.5-0.6-0.8l7.5-3.7c0,0.1,0.1,0.2,0.2,0.3
	C36.3,46.7,36.4,46.8,36.5,46.8z M34.6,45.6C34.6,45.6,34.6,45.6,34.6,45.6c0.1,0.2,0.3,0.3,0.4,0.3l-6.8,3.3
	c-0.2-0.4-0.3-0.7-0.3-0.9L34.6,45.6z M16.4,53l10.7-4.4c0.1,0.3,0.2,0.6,0.3,1l-9.9,4.8C17,53.9,16.6,53.4,16.4,53z M18.2,55.1
	l9.6-4.7c0.2,0.3,0.4,0.6,0.6,0.8l-9,4.9C19,55.9,18.6,55.5,18.2,55.1z M23.3,57.9c-1.1-0.2-2.2-0.6-3.1-1.2l8.8-4.8
	c0.3,0.3,0.8,0.6,1.2,0.8C27.6,54.5,25,56.4,23.3,57.9z M31.1,52c-0.5-0.1-0.9-0.4-1.3-0.6l7.7-4.2c0,0.1,0.1,0.2,0.2,0.3
	c0,0,0.1,0.1,0.1,0.1C36.4,48.5,33.8,50.2,31.1,52z M44.1,58.4L44,58.5l-2.6-1l0-0.4L44.1,58.4z M44.7,51.2c-1,0.3-2,0.5-3.1,0.7
	l-0.3-2.1c0-0.2-0.2-0.4-0.5-0.4c-0.2,0-0.4,0.2-0.4,0.5l0.3,2.3c0.2,1.3,0.8,2.5,1.7,3.4l-1.6,0.2c-0.2,0-0.4,0.2-0.4,0.5l0.1,1.1
	l-1.5-0.6c-0.2-0.1-0.4,0-0.5,0.1l-0.5,0.6l0.4-6.2c0-0.2-0.2-0.4-0.4-0.4c-0.2,0-0.4,0.2-0.4,0.4l-0.1,1c-1.4,0-2.8-0.2-4.3-0.5
	c2.9-1.9,5.3-3.5,6-3.9c0.1,0.2,0.2,0.3,0.4,0.4c0.3,0.2,0.8,0.2,1.1,0L41,48c0.1,0.2,0.3,0.3,0.5,0.4c0.1,0,0.2,0.1,0.4,0.1
	c0.3,0,0.6-0.1,0.8-0.3l3.1-3.5c0.2,0,0.4,0.1,0.6,0.1c-0.2,2.3-0.1,4.1,0.5,5.5C46.4,50.5,45.7,50.8,44.7,51.2z M51,55.1l-0.1,0.2
	l-2.6-1l0-0.4L51,55.1z M49.4,52.2l-1.6,0.2c-0.2,0-0.4,0.2-0.4,0.5l0.1,1.1l-1.5-0.6c-0.2-0.1-0.4,0-0.5,0.1l-0.5,0.6l0.1-2.1
	c0.9-0.3,1.6-0.6,2-0.9c0.3-0.2,0.7-0.3,1.1-0.4l0,0C48.6,51.2,49,51.7,49.4,52.2z M59.6,49.5L59,50.1c0-0.1-0.1-0.2-0.2-0.3
	c-0.3-0.4-0.7-0.7-1.2-0.7l-3.1-0.4c0,0,0,0-0.1,0c-0.2,0-0.3,0.1-0.4,0.2c-0.1,0.2,0,0.4,0.1,0.5l0.7,0.7c-1.2-0.6-2.5-0.8-3.9-0.7
	c-1.7,0.2-2.9,0.4-3.5,0.6c-0.8-1.8-0.8-4.4,0-8.1c2.2,2,7.5,4,9.9,4.9c0.1,0,0.2,0.2,0.2,0.3c0,0,0,0.1,0,0.1c0,0,0,0,0,0l0,0
	c0,0,0,0,0,0c-0.1,0.1-0.2,0.2-0.3,0.1L53,45.6c-0.2-0.1-0.5,0-0.5,0.2c-0.1,0.2,0,0.5,0.2,0.5l1.7,0.7l0.2,0.7
	c0.1,0.4,0.4,0.8,0.8,0.9c0.1,0.1,0.3,0.1,0.4,0.1c0.3,0,0.6-0.1,0.8-0.3l0.5-0.4c0.3,0,0.6-0.1,0.9-0.3l1.4,0.6
	c0.2,0.1,0.3,0.3,0.4,0.5C59.9,49.2,59.8,49.4,59.6,49.5z M56.3,47.8L56.3,47.8c-0.2,0.2-0.4,0.2-0.5,0.2s-0.3-0.2-0.3-0.3l0-0.2
	L56.3,47.8z"/>
</svg>
