<svg width="19" height="19" viewBox="0 0 19 19" fill="none" xmlns="http://www.w3.org/2000/svg">
<path d="M2.7768 6.78571C2.35662 6.78571 1.97603 6.71366 1.63502 6.56955C1.29401 6.42544 1.00172 6.20927 0.758139 5.92105C0.52065 5.63283 0.334921 5.27882 0.200952 4.85902C0.0669841 4.43922 0 3.9505 0 3.39286C0 2.84148 0.0669841 2.35589 0.200952 1.93609C0.334921 1.51002 0.52065 1.15288 0.758139 0.864662C1.00172 0.576441 1.29401 0.360276 1.63502 0.216165C1.97603 0.0720551 2.35662 0 2.7768 0C3.19697 0 3.57756 0.0720551 3.91857 0.216165C4.25958 0.360276 4.55188 0.576441 4.79546 0.864662C5.03904 1.15288 5.22476 1.51002 5.35264 1.93609C5.48661 2.35589 5.5536 2.84148 5.5536 3.39286C5.5536 3.9505 5.48661 4.43922 5.35264 4.85902C5.22476 5.27882 5.03904 5.63283 4.79546 5.92105C4.55188 6.20927 4.25958 6.42544 3.91857 6.56955C3.57756 6.71366 3.19697 6.78571 2.7768 6.78571ZM2.7768 5.68609C3.23351 5.68609 3.59583 5.52945 3.86377 5.21616C4.13779 4.90288 4.27481 4.46429 4.27481 3.90038V2.88534C4.27481 2.32143 4.13779 1.88283 3.86377 1.56955C3.59583 1.25627 3.23351 1.09962 2.7768 1.09962C2.32009 1.09962 1.95472 1.25627 1.68069 1.56955C1.41276 1.88283 1.27879 2.32143 1.27879 2.88534V3.90038C1.27879 4.46429 1.41276 4.90288 1.68069 5.21616C1.95472 5.52945 2.32009 5.68609 2.7768 5.68609Z" transform="translate(3.65723 6.10742)" fill="#F9CF28"/>
<path d="M6.77679 6.67293V0.112782H9.64493C9.93723 0.112782 10.1991 0.162907 10.4305 0.263158C10.668 0.357143 10.8689 0.494987 11.0333 0.676691C11.1977 0.85213 11.3226 1.06516 11.4078 1.31579C11.4931 1.56642 11.5357 1.84211 11.5357 2.14286C11.5357 2.44987 11.4931 2.7287 11.4078 2.97932C11.3226 3.22368 11.1977 3.43672 11.0333 3.61842C10.8689 3.79386 10.668 3.9317 10.4305 4.03195C10.1991 4.12594 9.93723 4.17293 9.64493 4.17293H7.98251V6.67293H6.77679ZM7.98251 3.1015H9.53532C9.76672 3.1015 9.94941 3.03885 10.0834 2.91353C10.2173 2.78195 10.2843 2.59712 10.2843 2.35902V1.92669C10.2843 1.6886 10.2173 1.50689 10.0834 1.38158C9.94941 1.25627 9.76672 1.19361 9.53532 1.19361H7.98251V3.1015Z" transform="translate(3.65723 6.10742)" fill="#F9CF28"/>
<mask id="path-2-inside-1" fill="white">
<path fill-rule="evenodd" clip-rule="evenodd" d="M9.5 18.3214C14.3719 18.3214 18.3214 14.3719 18.3214 9.5C18.3214 4.62806 14.3719 0.678571 9.5 0.678571C4.62806 0.678571 0.678571 4.62806 0.678571 9.5C0.678571 14.3719 4.62806 18.3214 9.5 18.3214ZM9.5 19C14.7467 19 19 14.7467 19 9.5C19 4.25329 14.7467 0 9.5 0C4.25329 0 0 4.25329 0 9.5C0 14.7467 4.25329 19 9.5 19Z"/>
</mask>
<path d="M17.3214 9.5C17.3214 13.8197 13.8197 17.3214 9.5 17.3214V19.3214C14.9242 19.3214 19.3214 14.9242 19.3214 9.5H17.3214ZM9.5 1.67857C13.8197 1.67857 17.3214 5.18034 17.3214 9.5H19.3214C19.3214 4.07577 14.9242 -0.321429 9.5 -0.321429V1.67857ZM1.67857 9.5C1.67857 5.18034 5.18034 1.67857 9.5 1.67857V-0.321429C4.07577 -0.321429 -0.321429 4.07577 -0.321429 9.5H1.67857ZM9.5 17.3214C5.18034 17.3214 1.67857 13.8197 1.67857 9.5H-0.321429C-0.321429 14.9242 4.07577 19.3214 9.5 19.3214V17.3214ZM18 9.5C18 14.1944 14.1944 18 9.5 18V20C15.299 20 20 15.299 20 9.5H18ZM9.5 1C14.1944 1 18 4.80558 18 9.5H20C20 3.70101 15.299 -1 9.5 -1V1ZM1 9.5C1 4.80558 4.80558 1 9.5 1V-1C3.70101 -1 -1 3.70101 -1 9.5H1ZM9.5 18C4.80558 18 1 14.1944 1 9.5H-1C-1 15.299 3.70101 20 9.5 20V18Z" fill="#F9D023" mask="url(#path-2-inside-1)"/>
</svg>
