<svg width="94" height="63" viewBox="0 0 94 63" fill="none" xmlns="http://www.w3.org/2000/svg">
<path d="M93.9755 1.82959C93.9817 1.79178 93.9927 1.75397 93.9958 1.71616C94.0068 1.59958 93.9943 1.48142 93.9802 1.36327C93.9771 1.33333 93.9817 1.30497 93.9771 1.27504C93.9489 1.11908 93.8972 0.96626 93.8205 0.819746C93.808 0.79454 93.7908 0.770908 93.7767 0.745702C93.7736 0.742551 93.7736 0.737824 93.772 0.733098C93.7705 0.729947 93.7658 0.728372 93.7642 0.723646C93.7532 0.706316 93.7439 0.687411 93.7329 0.671657C93.6359 0.528294 93.5185 0.410136 93.387 0.30931C93.3573 0.287254 93.3229 0.274651 93.2916 0.25417C93.1757 0.176975 93.0537 0.113957 92.9222 0.0714211C92.8643 0.0525161 92.8064 0.0430641 92.7469 0.0320362C92.6327 0.0084049 92.5184 -0.00262376 92.3995 0.000527081C92.3369 0.0021025 92.2774 0.00525306 92.2148 0.0147056C92.1741 0.0210073 92.135 0.0147064 92.0943 0.0241589L1.24874 18.9229C0.602368 19.0584 0.107809 19.5862 0.0154706 20.2447C-0.076868 20.9032 0.25023 21.5491 0.833998 21.8595L26.8641 35.6806L31.4294 61.182C31.4263 61.2009 31.4309 61.2214 31.4294 61.2403C31.4137 61.3663 31.4122 61.4892 31.4278 61.6136C31.4356 61.6767 31.4435 61.7365 31.4591 61.798C31.4951 61.9476 31.553 62.0878 31.6313 62.2202C31.6469 62.2454 31.6469 62.2753 31.6641 62.3005C31.6688 62.3084 31.6767 62.3147 31.6829 62.321C31.7033 62.3509 31.7314 62.3746 31.7549 62.4045C31.8285 62.4959 31.9052 62.5794 31.9928 62.6503C32.0069 62.6613 32.0163 62.6786 32.0319 62.6896C32.0554 62.707 32.082 62.7117 32.1055 62.7275C32.201 62.7905 32.2996 62.8425 32.4044 62.8834C32.4467 62.8992 32.4858 62.9181 32.5296 62.9307C32.6705 62.9716 32.816 63 32.9631 63C32.9647 63 32.9663 63 32.9678 63C32.9741 63 32.9804 62.9968 32.9866 62.9968C33.0132 62.9984 33.0398 63 33.0664 63C33.5 63 33.8912 62.8046 34.1808 62.5037L51.5201 50.8677L69.6748 62.7464C69.9314 62.9134 70.2288 63 70.5277 63C70.6921 63 70.8595 62.9732 71.0207 62.9197C71.4715 62.7684 71.8314 62.4187 71.9958 61.9681L93.9004 2.11947C93.9207 2.0659 93.9379 2.01076 93.952 1.95405C93.9583 1.93042 93.9598 1.90679 93.9645 1.88473C93.9692 1.8674 93.9724 1.8485 93.9755 1.82959ZM75.8489 11.8855L38.2984 39.6775C38.2374 39.7232 38.1889 39.7799 38.1357 39.8334C38.1153 39.8524 38.095 39.8681 38.0778 39.8886C38.0449 39.9248 38.0152 39.9611 37.9854 40.0004C37.9572 40.0382 37.9353 40.0776 37.9103 40.117C37.8524 40.2115 37.8039 40.3092 37.7663 40.4132C37.7585 40.4337 37.746 40.4494 37.7397 40.4699C37.7381 40.4762 37.7319 40.4794 37.7303 40.4857L33.4264 54.5652L30.0161 35.5168L75.8489 11.8855ZM35.8522 57.5963L40.1186 43.4112L46.7607 47.7578L48.6607 49.0008L42.2064 53.3316L35.8522 57.5963ZM81.4519 5.45621L28.282 32.8701L6.15208 21.1206L81.4519 5.45621ZM69.7374 59.0299L45.6276 43.2568L41.9763 40.8669L89.1692 5.93671L69.7374 59.0299Z" fill="#2D9CDB"/>
</svg>
