<svg width="69" height="70" viewBox="0 0 69 70" fill="none" xmlns="http://www.w3.org/2000/svg">
<path d="M14.5513 1.3008C13.0774 0.449862 11.4034 1.23854e-06 9.71022 1.23854e-06C6.25218 1.23854e-06 3.03092 1.85854 1.30354 4.85046C0.00826284 7.0938 -0.335811 9.70733 0.334581 12.2094C1.00512 14.7118 2.60986 16.8029 4.8532 18.0982C6.32693 18.949 8.0009 19.3989 9.69411 19.399C13.1525 19.399 16.3736 17.5405 18.1009 14.5485C19.3962 12.3052 19.7401 9.69167 19.0698 7.1896C18.3994 4.68737 16.7946 2.59607 14.5513 1.3008ZM16.1627 13.4295C14.8337 15.7312 12.3552 17.161 9.69426 17.1609C8.39331 17.1607 7.10624 16.8147 5.97226 16.16C4.24667 15.1636 3.01227 13.555 2.49661 11.6303C1.98079 9.70569 2.24549 7.69526 3.2419 5.96967C4.57075 3.66813 7.04925 2.23827 9.71037 2.23827C11.0112 2.23827 12.2982 2.58428 13.4324 3.23916C15.158 4.23542 16.3924 5.84418 16.9082 7.76882C17.4237 9.69346 17.159 11.7039 16.1627 13.4295Z" transform="translate(4.38858 46.25)" fill="#FFF"/>
<path d="M9.6943 1.23854e-06C8.00108 1.23854e-06 6.32712 0.449862 4.85324 1.3008C2.60989 2.59607 1.00516 4.68723 0.334618 7.1896C-0.335774 9.69182 0.00815256 12.3052 1.30343 14.5485C3.03081 17.5405 6.25207 19.399 9.71012 19.399C11.4033 19.399 13.0773 18.9491 14.5512 18.0982C16.7945 16.8029 18.3993 14.7118 19.0698 12.2094C19.7402 9.70718 19.3961 7.0938 18.1008 4.85046C16.3736 1.85869 13.1523 1.23854e-06 9.6943 1.23854e-06ZM16.9079 11.6303C16.3923 13.555 15.1579 15.1637 13.4323 16.16C12.2981 16.8147 11.0111 17.1609 9.71026 17.1609C7.04928 17.1609 4.57064 15.731 3.24179 13.4295C2.24553 11.7039 1.98083 9.69346 2.4965 7.76882C3.01231 5.84418 4.24656 4.23527 5.9723 3.23916C7.10643 2.58428 8.3935 2.23827 9.6943 2.23827C12.3553 2.23827 14.8339 3.66813 16.1628 5.96967C17.1589 7.69526 17.4236 9.70554 16.9079 11.6303Z" transform="translate(44.3615 46.25)" fill="#FFF"/>
<path d="M66.2495 48.7352C64.2781 45.3204 60.9536 42.8292 57.129 41.8999C53.5216 41.0236 49.8645 41.6132 46.8311 43.56C44.7286 44.9092 42.0779 44.6209 40.486 42.9674L61.3375 13.1903C62.7664 11.1499 63.3148 8.67515 62.8824 6.22217C62.4499 3.76904 61.0879 1.63104 59.0475 0.202367C58.8044 0.0321206 58.5035 -0.0345754 58.2113 0.0170506C57.919 0.0685274 57.6591 0.233999 57.489 0.477209L34.0772 33.9125L16.7222 9.12695C16.3678 8.62069 18.2374 12.1641 17.7312 12.5186C17.2249 12.8731 14.5344 9.90448 14.8889 10.4106L34.0657 37.798C33.0327 37.7988 31.9904 38.1033 31.0819 38.7394C30.1738 39.3753 29.5313 40.2503 29.1772 41.2203L8.6505 11.9067C7.56471 10.3558 7.14767 8.47521 7.47638 6.61086C7.73943 5.11922 8.45459 3.78098 9.52441 2.74935L14.8889 10.4106C15.2434 10.917 17.2252 12.8733 17.7312 12.5186C18.2374 12.1641 17.0767 9.63307 16.7222 9.12695L10.6657 0.477358C10.3112 -0.0290547 9.61349 -0.151853 9.10722 0.202516C7.0668 1.63118 5.70483 3.76904 5.27228 6.22217C4.83972 8.6753 5.38836 11.1499 6.81718 13.1903L27.6686 42.9675C26.0768 44.6212 23.4261 44.9093 21.3236 43.5602C18.2902 41.6131 14.6331 41.0238 11.026 41.9001C7.20109 42.8292 3.87673 45.3205 1.90525 48.7353C0.0120927 52.0145 -0.490888 55.8345 0.489111 59.4917C1.46911 63.1491 3.81466 66.2059 7.09381 68.0991C9.26792 69.3544 11.7046 70 14.1703 69.9999C15.1964 69.9999 16.2279 69.8881 17.2471 69.6617C20.6931 68.8968 23.7098 66.8944 25.7451 64.019L34.0775 52.1198L42.4133 64.0238C44.4452 66.8945 47.4621 68.8969 50.908 69.6619C51.9276 69.8882 52.9585 70.0002 53.985 70C56.4504 70 58.8874 69.3544 61.0615 68.0992C64.3407 66.2061 66.6862 63.1493 67.6662 59.4919C68.6462 55.8345 68.1428 52.0142 66.2495 48.7352ZM58.6303 2.7492C59.7 3.78083 60.4151 5.11907 60.6783 6.61086C61.007 8.47521 60.5902 10.356 59.5042 11.9067L39.0857 41.0653L38.3558 40.0227C38.3538 40.0201 35.4434 35.8634 35.4434 35.8634L58.6303 2.7492ZM23.9148 62.7304C20.3351 67.7877 13.5848 69.262 8.21257 66.1606C5.45118 64.5663 3.47596 61.9921 2.65069 58.9123C1.82542 55.8325 2.24902 52.6156 3.84331 49.8542C5.51041 46.9667 8.3209 44.8602 11.5541 44.0749C14.5611 43.3441 17.6012 43.8305 20.1146 45.4436C23.0004 47.2957 26.6265 46.9676 28.9679 44.8234L29.7737 45.9744C29.7826 45.987 29.7903 46.0002 29.7993 46.0129C29.803 46.0181 29.8073 46.0224 29.8111 46.0278L32.7109 50.1689L23.9148 62.7304ZM65.5039 58.9125C64.6786 61.9924 62.7034 64.5666 59.942 66.1607C54.5698 69.2625 47.8193 67.7877 44.2431 62.7352L31.6206 44.7094C30.6933 43.3632 31.0243 41.512 32.3656 40.5726C33.713 39.6291 35.577 39.9574 36.5212 41.3046L38.1928 43.6919C40.3793 46.8148 44.705 47.5843 48.04 45.4433C50.5535 43.8302 53.5938 43.3443 56.6006 44.0746C59.8338 44.8601 62.6442 46.9666 64.3113 49.8539C65.9055 52.6156 66.3291 55.8325 65.5039 58.9125Z" fill="#FFF"/>
<path d="M1.11906 2.23812C1.7371 2.23812 2.23812 1.7371 2.23812 1.11906C2.23812 0.501019 1.7371 -2.14924e-06 1.11906 -2.14924e-06C0.501021 -2.14924e-06 0 0.501019 0 1.11906C0 1.7371 0.501021 2.23812 1.11906 2.23812Z" transform="translate(32.9581 41.8975)" fill="#FFF"/>
</svg>
