<svg width="76" height="76" viewBox="0 0 76 76" fill="none" xmlns="http://www.w3.org/2000/svg">
<path d="M75.5071 45.5074C56.3706 21.7846 57.4745 23.1333 57.2624 22.9512C57.256 22.9457 57.2505 22.9393 57.244 22.9338L30.5251 0.519575C29.8586 -0.0397412 28.9178 -0.160719 28.1273 0.221214C28.1178 0.225815 28.1077 0.229081 28.0982 0.233831L10.2856 9.14015C9.85691 9.35449 9.50883 9.70139 9.29315 10.1293L0.238392 28.0904C0.234978 28.0972 0.232752 28.1045 0.229338 28.1113C0.0868366 28.4014 0.013211 28.7165 0.00252346 29.0121C0.00163282 29.0352 0.000742193 29.0584 0.000593754 29.0817C0.000593754 29.0854 0 29.0891 0 29.0928V60.2649C0 60.9647 0.32894 61.6237 0.888256 62.0444L18.8208 75.5308C18.8225 75.5321 18.8242 75.5333 18.8259 75.5346L18.8493 75.5523C19.2206 75.8329 19.7082 76 20.1884 76C20.1925 76 20.1966 75.9994 20.2007 75.9994H51.3566H51.3584H51.3597C51.7635 75.9994 52.1717 75.8832 52.5088 75.68L74.9232 62.1721C75.5917 61.7692 76.0005 61.0456 76.0005 60.2651V46.9056C76.0007 46.3967 75.8264 45.9033 75.5071 45.5074ZM4.45331 59.1534V40.6013L15.143 67.1928L4.45331 59.1534ZM21.6925 71.5462L7.91608 37.2761L45.6018 71.5462H21.6925ZM4.9767 28.584L12.9375 12.7932L27.7466 5.38866L46.8013 66.6178L4.9767 28.584ZM50.1544 62.406L33.4738 8.80586L53.4906 25.5977L50.1544 62.406ZM71.5475 59.007L53.9739 69.5977L54.4032 64.8606L57.5339 30.3192L71.5475 47.6916V59.007Z" fill="#504A81"/>
</svg>
