<?xml version="1.0" encoding="utf-8"?>
<!-- Generator: Adobe Illustrator 19.2.0, SVG Export Plug-In . SVG Version: 6.00 Build 0)  -->
<svg version="1.1" id="Шар_1" xmlns="http://www.w3.org/2000/svg" xmlns:xlink="http://www.w3.org/1999/xlink" x="0px" y="0px"
	 viewBox="0 0 19 19" style="enable-background:new 0 0 19 19;" xml:space="preserve">
<path fill="#F9CF28" d="M6.4,12.9c-0.4,0-0.8-0.1-1.1-0.2S4.7,12.3,4.4,12C4.2,11.7,4,11.4,3.9,11c-0.1-0.4-0.2-0.9-0.2-1.5
	c0-0.6,0.1-1,0.2-1.5C4,7.6,4.2,7.3,4.4,7C4.7,6.7,5,6.5,5.3,6.3C5.6,6.2,6,6.1,6.4,6.1c0.4,0,0.8,0.1,1.1,0.2
	C7.9,6.5,8.2,6.7,8.5,7C8.7,7.3,8.9,7.6,9,8c0.1,0.4,0.2,0.9,0.2,1.5c0,0.6-0.1,1-0.2,1.5c-0.1,0.4-0.3,0.8-0.6,1.1
	c-0.2,0.3-0.5,0.5-0.9,0.6S6.9,12.9,6.4,12.9z M6.4,11.8c0.5,0,0.8-0.2,1.1-0.5C7.8,11,7.9,10.6,7.9,10V9c0-0.6-0.1-1-0.4-1.3
	C7.3,7.4,6.9,7.2,6.4,7.2S5.6,7.4,5.3,7.7C5.1,8,4.9,8.4,4.9,9v1c0,0.6,0.1,1,0.4,1.3C5.6,11.6,6,11.8,6.4,11.8z M10.4,12.8V6.2h2.9
	c0.3,0,0.6,0.1,0.8,0.2c0.2,0.1,0.4,0.2,0.6,0.4C14.9,7,15,7.2,15.1,7.4c0.1,0.3,0.1,0.5,0.1,0.8c0,0.3,0,0.6-0.1,0.8
	c-0.1,0.2-0.2,0.5-0.4,0.6c-0.2,0.2-0.4,0.3-0.6,0.4c-0.2,0.1-0.5,0.1-0.8,0.1h-1.7v2.5H10.4z M11.6,9.2h1.6c0.2,0,0.4-0.1,0.5-0.2
	c0.1-0.1,0.2-0.3,0.2-0.6V8c0-0.2-0.1-0.4-0.2-0.5c-0.1-0.1-0.3-0.2-0.5-0.2h-1.6V9.2z M9.5,0C4.3,0,0,4.3,0,9.5S4.3,19,9.5,19
	S19,14.7,19,9.5S14.7,0,9.5,0z M9.5,18.3c-4.9,0-8.8-3.9-8.8-8.8c0-4.9,3.9-8.8,8.8-8.8c4.9,0,8.8,3.9,8.8,8.8
	C18.3,14.4,14.4,18.3,9.5,18.3z"/>
</svg>
